<?xml version="1.0" standalone="no"?>
<!DOCTYPE svg PUBLIC "-//W3C//DTD SVG 1.1//EN" "http://www.w3.org/Graphics/SVG/1.1/DTD/svg11.dtd">
<!--Generator: Xara Designer (www.xara.com), SVG filter version: 6.3.0.4-->
<svg stroke-width="0.501" stroke-linejoin="bevel" fill-rule="evenodd" xmlns:xlink="http://www.w3.org/1999/xlink" xmlns="http://www.w3.org/2000/svg" version="1.1" overflow="visible" width="187.5pt" height="187.5pt" viewBox="0 0 187.5 187.5">
 <defs>
	</defs>
 <g id="Document" fill="none" stroke="black" font-family="Times New Roman" font-size="16" transform="scale(1 -1)">
  <g id="Spread" transform="translate(0 -187.5)">
   <g id="Layer 1">
    <mask id="TranspMask">
     <rect x="-10%" y="-10%" width="120%" height="120%" fill="#bfbfbf" stroke="none"/>
    </mask>
    <g id="Group" stroke="none" stroke-linejoin="miter" stroke-width="2.701" fill="#ffffff" stroke-miterlimit="79.8403193612775" mask="url(#TranspMask)">
     <path d="M 175.326,49.426 L 175.23,49.484 L 126.751,76.013 L 126.808,76.112 C 126.808,76.112 126.919,76.299 127.089,76.643 C 127.294,77.023 127.547,77.534 127.798,78.071 L 128.018,78.544 C 128.066,78.651 128.115,78.762 128.165,78.881 L 128.239,79.05 C 128.347,79.281 128.445,79.524 128.547,79.787 C 128.596,79.903 128.645,80.029 128.696,80.151 C 129.028,81.012 129.316,81.838 129.559,82.608 C 129.812,83.437 130.045,84.283 130.24,85.116 C 130.282,85.293 130.315,85.466 130.356,85.636 C 130.411,85.865 130.457,86.076 130.492,86.286 L 130.543,86.551 C 130.562,86.646 130.582,86.743 130.599,86.836 L 130.683,87.35 C 130.732,87.571 130.761,87.78 130.781,87.972 C 130.799,88.066 130.808,88.161 130.822,88.246 C 130.856,88.427 130.872,88.582 130.888,88.728 C 130.899,88.803 130.909,88.874 130.918,88.946 C 130.927,89.028 130.937,89.108 130.946,89.183 C 130.959,89.263 130.964,89.33 130.969,89.389 C 130.983,89.497 130.986,89.555 130.986,89.555 L 130.999,89.66 L 131.104,89.649 L 186.075,83.913 L 186.021,83.4 C 186.013,83.255 185.989,83.08 185.964,82.873 C 185.941,82.692 185.916,82.489 185.893,82.259 C 185.873,82.123 185.856,81.976 185.836,81.822 C 185.789,81.423 185.732,80.98 185.657,80.493 L 185.58,79.98 C 185.505,79.446 185.422,78.842 185.303,78.211 C 185.236,77.796 185.16,77.363 185.082,76.914 C 185.028,76.618 184.971,76.317 184.909,76.015 L 184.817,75.527 C 184.668,74.77 184.502,73.993 184.317,73.174 L 184.175,72.546 C 183.664,70.384 183.082,68.233 182.435,66.147 C 181.79,64.077 181.049,61.97 180.234,59.883 L 180.085,59.52 C 179.74,58.65 179.41,57.839 179.068,57.061 C 178.994,56.903 178.921,56.743 178.858,56.587 C 178.736,56.306 178.617,56.03 178.498,55.767 L 178.249,55.231 C 178.142,55.003 178.043,54.782 177.942,54.562 C 177.16,52.899 176.52,51.65 176.114,50.892 L 175.939,50.558 C 175.791,50.273 175.669,50.046 175.578,49.878 C 175.452,49.647 175.382,49.521 175.382,49.521 L 175.326,49.426 M 127.052,76.103 L 175.24,49.726 C 175.277,49.787 175.321,49.873 175.385,49.984 C 175.479,50.153 175.595,50.379 175.746,50.658 L 175.918,50.996 C 176.323,51.749 176.962,52.996 177.741,54.658 C 177.845,54.877 177.946,55.101 178.049,55.327 L 178.293,55.86 C 178.415,56.124 178.533,56.397 178.656,56.672 C 178.725,56.832 178.792,56.986 178.862,57.148 C 179.208,57.927 179.537,58.739 179.882,59.599 L 180.029,59.966 C 180.838,62.044 181.581,64.148 182.225,66.209 C 182.868,68.296 183.447,70.444 183.961,72.595 L 184.101,73.226 C 184.282,74.041 184.452,74.811 184.602,75.566 L 184.694,76.055 C 184.752,76.358 184.809,76.66 184.866,76.953 C 184.945,77.396 185.015,77.832 185.088,78.249 C 185.201,78.875 185.286,79.477 185.362,80.015 L 185.441,80.53 C 185.515,81.009 185.566,81.458 185.614,81.844 C 185.635,82.004 185.655,82.146 185.672,82.288 C 185.699,82.516 185.719,82.721 185.742,82.899 C 185.77,83.11 185.789,83.281 185.805,83.417 L 185.831,83.717 L 131.196,89.419 C 131.196,89.403 131.193,89.389 131.192,89.367 C 131.188,89.31 131.179,89.239 131.169,89.15 C 131.159,89.085 131.151,89.003 131.137,88.92 C 131.129,88.847 131.119,88.777 131.109,88.695 C 131.095,88.552 131.072,88.396 131.04,88.215 C 131.026,88.13 131.019,88.04 131.003,87.943 C 130.98,87.742 130.949,87.537 130.902,87.307 L 130.818,86.797 C 130.799,86.699 130.778,86.608 130.761,86.506 L 130.709,86.244 C 130.676,86.033 130.625,85.817 130.569,85.587 C 130.535,85.416 130.495,85.246 130.463,85.071 C 130.255,84.226 130.03,83.377 129.769,82.537 C 129.522,81.768 129.232,80.937 128.902,80.072 C 128.852,79.942 128.801,79.821 128.751,79.699 C 128.648,79.444 128.549,79.191 128.438,78.953 L 128.368,78.793 C 128.315,78.679 128.273,78.56 128.215,78.449 L 128,77.98 C 127.741,77.439 127.493,76.923 127.286,76.539 C 127.18,76.336 127.102,76.187 127.052,76.103 Z" marker-start="none" marker-end="none"/>
    </g>
    <mask id="TranspMask_1">
     <rect x="-10%" y="-10%" width="120%" height="120%" fill="#828282" stroke="none"/>
    </mask>
    <g id="Group_1" stroke="none" stroke-linejoin="miter" stroke-width="2.701" fill="#ffffff" stroke-miterlimit="79.8403193612775" mask="url(#TranspMask_1)">
     <path d="M 178.059,35.41 L 177.937,35.496 L 126.709,71.317 L 126.786,71.437 C 126.786,71.437 126.839,71.514 126.938,71.656 L 127.007,71.751 C 127.095,71.881 127.218,72.051 127.348,72.265 C 127.405,72.348 127.462,72.434 127.523,72.526 L 127.643,72.713 C 127.705,72.803 127.769,72.904 127.835,73.012 L 127.969,73.231 C 128.009,73.298 128.052,73.369 128.099,73.439 L 128.153,73.523 C 128.179,73.572 128.212,73.627 128.245,73.679 C 128.273,73.73 128.302,73.783 128.333,73.837 C 128.374,73.9 128.407,73.963 128.45,74.033 L 128.628,74.344 C 128.663,74.395 128.696,74.448 128.723,74.51 C 129.315,75.552 129.889,76.707 130.394,77.853 C 130.956,79.123 131.477,80.514 131.898,81.871 C 132.318,83.203 132.668,84.609 132.947,86.051 C 133.189,87.31 133.368,88.601 133.473,89.773 C 133.473,89.827 133.482,89.88 133.488,89.926 L 133.498,89.98 C 133.498,90.043 133.501,90.106 133.508,90.181 L 133.553,90.733 C 133.557,90.797 133.565,90.868 133.567,90.932 L 133.582,91.273 C 133.585,91.376 133.588,91.481 133.598,91.583 C 133.603,91.69 133.611,91.797 133.616,91.895 C 133.616,92.087 133.619,92.271 133.626,92.427 C 133.636,92.657 133.636,92.852 133.633,93.009 L 133.636,93.173 C 133.633,93.346 133.636,93.437 133.636,93.437 L 133.642,93.583 L 133.783,93.58 L 196.295,93.846 L 196.29,92.662 C 196.288,92.239 196.29,91.697 196.268,91.043 C 196.26,90.693 196.252,90.307 196.239,89.893 L 196.232,89.647 C 196.219,89.208 196.192,88.747 196.165,88.253 L 196.108,87.082 C 196.101,86.93 196.084,86.772 196.075,86.613 C 196.062,86.449 196.045,86.288 196.042,86.126 L 195.963,85.11 C 195.946,84.941 195.932,84.77 195.922,84.593 L 195.872,84.054 C 195.579,80.82 195.115,77.526 194.483,74.253 C 193.778,70.538 192.846,66.837 191.728,63.249 C 190.616,59.663 189.272,56.084 187.745,52.617 C 186.411,49.572 184.914,46.587 183.305,43.736 C 183.215,43.578 183.125,43.427 183.052,43.269 C 182.978,43.151 182.913,43.04 182.856,42.933 L 182.776,42.81 C 182.666,42.617 182.556,42.443 182.452,42.253 L 182.042,41.549 C 181.949,41.4 181.858,41.251 181.769,41.101 L 181.616,40.85 C 181.505,40.677 181.392,40.496 181.285,40.316 L 181.139,40.086 C 180.882,39.67 180.645,39.276 180.406,38.917 L 180.269,38.703 C 180.044,38.357 179.831,38.036 179.643,37.738 C 179.195,37.046 178.809,36.498 178.556,36.135 L 178.535,36.106 C 178.281,35.733 178.139,35.535 178.139,35.535 L 178.059,35.41 M 127.11,71.395 L 177.987,35.82 C 178.051,35.914 178.155,36.07 178.295,36.276 L 178.322,36.302 C 178.585,36.685 178.949,37.207 179.389,37.902 C 179.588,38.201 179.799,38.518 180.027,38.861 L 180.164,39.08 C 180.402,39.433 180.639,39.827 180.892,40.239 L 181.039,40.47 C 181.145,40.65 181.255,40.823 181.371,41.006 L 181.519,41.255 C 181.608,41.395 181.7,41.546 181.785,41.7 L 182.2,42.403 C 182.304,42.59 182.413,42.77 182.527,42.959 L 182.598,43.086 C 182.661,43.191 182.726,43.3 182.795,43.413 C 182.871,43.566 182.959,43.726 183.053,43.88 C 184.661,46.723 186.146,49.703 187.479,52.731 C 189.001,56.193 190.335,59.76 191.448,63.335 C 192.563,66.911 193.486,70.603 194.199,74.308 C 194.816,77.526 195.295,80.903 195.579,84.081 L 195.634,84.615 C 195.644,84.791 195.656,84.963 195.671,85.138 L 195.748,86.146 C 195.757,86.309 195.775,86.469 195.781,86.63 C 195.798,86.791 195.805,86.946 195.815,87.103 L 195.874,88.268 C 195.902,88.76 195.922,89.22 195.936,89.65 L 195.944,89.906 C 195.959,90.316 195.971,90.7 195.977,91.051 C 195.994,91.699 195.999,92.239 196.001,92.662 L 196.002,93.555 L 133.926,93.292 C 133.925,93.256 133.925,93.219 133.925,93.173 L 133.926,93.009 C 133.925,92.852 133.93,92.653 133.918,92.417 C 133.911,92.264 133.909,92.079 133.906,91.89 C 133.903,91.786 133.895,91.673 133.891,91.563 C 133.882,91.467 133.879,91.366 133.876,91.259 L 133.859,90.912 C 133.855,90.842 133.849,90.776 133.841,90.71 L 133.799,90.154 C 133.796,90.09 133.792,90.029 133.796,89.963 L 133.783,89.889 C 133.776,89.845 133.77,89.801 133.761,89.751 C 133.659,88.567 133.476,87.264 133.232,85.994 C 132.951,84.539 132.602,83.124 132.18,81.788 C 131.756,80.42 131.23,79.015 130.665,77.737 C 130.156,76.576 129.575,75.419 128.979,74.374 C 128.949,74.309 128.915,74.252 128.885,74.193 L 128.703,73.887 C 128.663,73.817 128.622,73.747 128.588,73.683 C 128.553,73.633 128.523,73.583 128.498,73.534 C 128.466,73.479 128.436,73.423 128.399,73.367 L 128.344,73.283 C 128.299,73.214 128.261,73.147 128.215,73.077 L 128.083,72.86 C 128.018,72.75 127.95,72.644 127.886,72.547 L 127.763,72.366 C 127.709,72.274 127.645,72.189 127.596,72.104 C 127.462,71.891 127.335,71.719 127.249,71.584 L 127.179,71.489 C 127.156,71.451 127.135,71.419 127.11,71.395 Z" marker-start="none" marker-end="none"/>
    </g>
    <mask id="TranspMask_2">
     <rect x="-10%" y="-10%" width="120%" height="120%" fill="#7f7f7f" stroke="none"/>
    </mask>
    <g id="Group_2" stroke="none" stroke-linejoin="miter" stroke-width="2.701" fill="#ffffff" stroke-miterlimit="79.8403193612775" mask="url(#TranspMask_2)">
     <path d="M 118.246,19.87 L 117.546,19.659 C 117.432,19.627 117.302,19.588 117.154,19.546 C 116.816,19.446 116.393,19.321 115.896,19.191 L 115.508,19.083 C 115.259,19.016 114.998,18.943 114.713,18.872 L 113.315,18.531 C 113.067,18.467 112.807,18.411 112.536,18.353 L 111.726,18.174 C 111.276,18.069 110.811,17.981 110.322,17.887 L 109.936,17.81 C 107.041,17.265 104.157,16.888 101.375,16.687 L 99.623,16.584 L 98.728,16.54 C 98.602,16.531 98.486,16.526 98.355,16.524 C 98.255,16.52 98.152,16.517 98.05,16.517 C 97.948,16.51 97.842,16.513 97.742,16.507 C 97.332,16.496 96.916,16.487 96.506,16.486 L 96.003,16.484 C 95.757,16.486 95.503,16.484 95.255,16.48 C 95.047,16.48 94.838,16.484 94.634,16.484 L 92.527,16.54 C 92.179,16.56 91.828,16.577 91.48,16.595 L 90.096,16.682 C 89.716,16.713 89.338,16.737 88.951,16.772 L 88.352,16.83 C 87.733,16.893 87.099,16.955 86.465,17.036 C 84.679,17.236 82.957,17.536 81.653,17.768 C 78.814,18.296 75.99,18.983 73.265,19.811 C 70.775,20.567 68.782,21.32 67.496,21.819 L 65.236,22.751 L 65.289,22.868 L 81.219,60.054 L 81.339,60 C 81.342,59.998 81.43,59.96 81.596,59.883 L 81.833,59.789 C 81.976,59.732 82.149,59.663 82.348,59.58 C 82.92,59.36 83.889,58.993 85.073,58.637 C 86.316,58.256 87.689,57.921 89.04,57.663 L 89.159,57.643 C 89.864,57.527 90.589,57.403 91.331,57.32 C 91.555,57.289 91.787,57.267 92.011,57.243 C 92.179,57.229 92.344,57.213 92.508,57.19 L 93.4,57.123 C 93.498,57.117 93.599,57.116 93.699,57.11 L 94.508,57.075 C 94.636,57.073 94.763,57.066 94.888,57.066 L 95.49,57.06 C 95.589,57.06 95.688,57.053 95.792,57.06 C 95.887,57.053 95.987,57.053 96.082,57.053 C 96.269,57.061 96.463,57.066 96.666,57.066 C 96.709,57.071 96.751,57.071 96.8,57.071 C 96.849,57.073 96.896,57.073 96.948,57.075 C 97.052,57.08 97.145,57.09 97.236,57.092 L 98.374,57.153 C 99.655,57.243 101.008,57.42 102.403,57.682 C 102.516,57.712 102.632,57.731 102.753,57.753 C 102.917,57.782 103.08,57.812 103.23,57.853 C 103.346,57.878 103.46,57.903 103.567,57.927 L 103.622,57.934 C 103.749,57.964 103.868,57.986 103.983,58.019 C 104.221,58.08 104.439,58.134 104.648,58.181 C 104.809,58.223 104.976,58.266 105.123,58.309 L 105.193,58.328 C 105.436,58.387 105.638,58.454 105.797,58.504 L 106.354,58.666 L 118.246,19.87 M 65.568,22.887 L 66.486,22.504 L 67.593,22.053 C 68.869,21.554 70.859,20.809 73.342,20.053 C 76.058,19.23 78.869,18.54 81.696,18.016 C 82.997,17.783 84.719,17.488 86.495,17.284 C 87.12,17.201 87.758,17.14 88.376,17.076 L 88.982,17.024 C 89.356,16.99 89.736,16.96 90.114,16.931 L 91.488,16.843 C 91.838,16.827 92.19,16.808 92.538,16.793 L 92.748,16.783 L 94.639,16.735 C 94.842,16.735 95.047,16.735 95.255,16.731 C 95.506,16.735 95.757,16.731 96.003,16.731 L 96.496,16.731 C 96.909,16.739 97.326,16.747 97.736,16.757 C 97.839,16.763 97.94,16.763 98.045,16.763 C 98.144,16.77 98.249,16.77 98.353,16.772 C 98.47,16.773 98.592,16.786 98.716,16.791 L 100.165,16.857 L 101.353,16.943 C 104.129,17.137 107.003,17.517 109.888,18.061 L 110.276,18.135 C 110.761,18.227 111.222,18.314 111.665,18.417 L 112.483,18.595 C 112.755,18.654 113.005,18.714 113.256,18.773 L 114.655,19.12 C 114.933,19.186 115.192,19.26 115.44,19.325 L 115.827,19.43 C 116.326,19.56 116.749,19.689 117.089,19.787 C 117.231,19.83 117.361,19.87 117.476,19.903 L 117.933,20.036 L 106.189,58.356 L 105.872,58.257 C 105.709,58.211 105.502,58.146 105.256,58.085 L 105.193,58.07 C 105.039,58.026 104.878,57.98 104.705,57.936 C 104.494,57.888 104.282,57.831 104.043,57.774 C 103.932,57.744 103.804,57.718 103.676,57.691 L 103.628,57.682 C 103.516,57.656 103.4,57.628 103.289,57.609 C 103.137,57.569 102.965,57.535 102.801,57.504 C 102.685,57.486 102.566,57.464 102.45,57.433 C 101.048,57.173 99.685,56.994 98.395,56.903 L 97.245,56.841 C 97.159,56.837 97.059,56.829 96.962,56.823 C 96.913,56.827 96.859,56.82 96.806,56.821 C 96.761,56.821 96.716,56.821 96.673,56.817 C 96.473,56.817 96.282,56.81 96.085,56.806 C 95.986,56.802 95.887,56.806 95.786,56.806 C 95.686,56.802 95.593,56.807 95.487,56.807 L 94.882,56.82 C 94.758,56.817 94.634,56.82 94.499,56.823 L 94.292,56.827 L 93.688,56.86 C 93.593,56.863 93.489,56.868 93.383,56.876 L 92.486,56.942 C 92.313,56.96 92.155,56.977 91.987,56.994 C 91.758,57.016 91.525,57.034 91.293,57.073 C 90.552,57.156 89.824,57.277 89.122,57.4 L 88.997,57.418 C 87.636,57.677 86.253,58.012 84.999,58.396 C 83.896,58.728 83.01,59.06 82.255,59.346 C 82.053,59.43 81.886,59.5 81.74,59.557 L 81.498,59.65 C 81.442,59.678 81.385,59.703 81.352,59.717 L 65.568,22.887 Z" marker-start="none" marker-end="none"/>
    </g>
    <mask id="TranspMask_3">
     <rect x="-10%" y="-10%" width="120%" height="120%" fill="#7f7f7f" stroke="none"/>
    </mask>
    <g id="Group_3" stroke="none" stroke-linejoin="miter" stroke-width="2.701" fill="#ffffff" stroke-miterlimit="79.8403193612775" mask="url(#TranspMask_3)">
     <path d="M 144.249,148.889 L 144.799,148.404 C 144.881,148.323 144.986,148.232 145.099,148.133 C 145.368,147.899 145.697,147.607 146.065,147.254 L 146.364,146.981 C 146.549,146.802 146.751,146.618 146.961,146.419 L 147.993,145.414 C 148.179,145.233 148.362,145.044 148.56,144.846 L 149.139,144.25 C 149.462,143.923 149.779,143.577 150.119,143.213 L 150.393,142.923 C 152.385,140.757 154.229,138.51 155.871,136.249 L 156.888,134.822 L 157.403,134.09 C 157.472,133.983 157.543,133.88 157.607,133.78 C 157.665,133.696 157.72,133.612 157.778,133.521 C 157.835,133.436 157.891,133.349 157.95,133.266 C 158.171,132.923 158.398,132.577 158.624,132.229 L 158.89,131.805 C 159.017,131.593 159.154,131.383 159.286,131.173 C 159.393,130.996 159.505,130.818 159.614,130.637 L 160.679,128.823 C 160.849,128.518 161.019,128.213 161.188,127.905 L 161.841,126.683 C 162.02,126.344 162.198,126.012 162.375,125.67 L 162.635,125.126 C 162.916,124.569 163.205,123.992 163.462,123.414 C 164.235,121.796 164.897,120.175 165.388,118.943 C 166.444,116.256 167.352,113.499 168.09,110.748 C 168.766,108.233 169.185,106.142 169.442,104.79 L 169.841,102.379 L 169.715,102.358 L 129.735,96.209 L 129.715,96.338 C 129.719,96.34 129.703,96.435 129.671,96.622 L 129.632,96.87 C 129.599,97.02 129.573,97.206 129.533,97.414 C 129.417,98.019 129.222,99.03 128.899,100.229 C 128.563,101.488 128.12,102.831 127.618,104.11 L 127.575,104.223 C 127.305,104.879 127.028,105.562 126.705,106.231 C 126.612,106.447 126.508,106.65 126.408,106.855 C 126.33,107.007 126.26,107.152 126.19,107.306 L 125.776,108.097 C 125.728,108.181 125.681,108.273 125.629,108.356 L 125.236,109.063 C 125.162,109.17 125.105,109.28 125.036,109.39 L 124.725,109.903 C 124.675,109.985 124.623,110.076 124.565,110.16 C 124.518,110.244 124.469,110.326 124.418,110.406 C 124.306,110.566 124.205,110.73 124.093,110.895 C 124.074,110.933 124.042,110.97 124.021,111.009 C 123.993,111.05 123.968,111.093 123.939,111.134 C 123.882,111.217 123.824,111.297 123.778,111.368 L 123.115,112.303 C 122.368,113.339 121.503,114.398 120.536,115.439 C 120.453,115.522 120.378,115.617 120.296,115.698 C 120.183,115.822 120.07,115.946 119.959,116.054 C 119.876,116.14 119.792,116.222 119.719,116.303 L 119.676,116.343 C 119.592,116.434 119.508,116.526 119.418,116.605 C 119.243,116.772 119.082,116.932 118.932,117.08 C 118.809,117.199 118.682,117.313 118.568,117.417 L 118.516,117.466 C 118.335,117.642 118.172,117.78 118.05,117.891 L 117.615,118.274 L 144.249,148.889 M 169.558,102.587 L 169.395,103.569 L 169.193,104.749 C 168.937,106.09 168.518,108.169 167.846,110.686 C 167.109,113.426 166.205,116.173 165.158,118.853 C 164.665,120.081 164.002,121.692 163.238,123.31 C 162.977,123.88 162.689,124.46 162.413,125.015 L 162.146,125.552 C 161.976,125.895 161.799,126.23 161.62,126.566 L 160.969,127.781 C 160.799,128.086 160.628,128.397 160.459,128.699 L 160.356,128.883 L 159.398,130.51 C 159.29,130.681 159.179,130.86 159.072,131.037 C 158.941,131.248 158.806,131.459 158.671,131.676 L 158.413,132.09 C 158.191,132.442 157.966,132.785 157.739,133.128 C 157.679,133.212 157.623,133.298 157.568,133.387 C 157.512,133.471 157.453,133.557 157.403,133.643 C 157.332,133.74 157.262,133.839 157.195,133.943 L 156.372,135.141 L 155.668,136.104 C 154.032,138.356 152.191,140.593 150.206,142.753 L 149.937,143.043 C 149.603,143.404 149.283,143.751 148.964,144.068 L 148.373,144.669 C 148.186,144.869 148.001,145.053 147.819,145.23 L 146.786,146.236 C 146.585,146.44 146.38,146.62 146.191,146.796 L 145.898,147.07 C 145.525,147.423 145.194,147.715 144.936,147.95 C 144.822,148.047 144.718,148.139 144.63,148.217 L 144.273,148.532 L 117.968,118.296 L 118.214,118.081 C 118.346,117.97 118.506,117.825 118.689,117.649 L 118.738,117.603 C 118.851,117.5 118.976,117.383 119.109,117.26 C 119.256,117.109 119.418,116.956 119.592,116.79 C 119.684,116.707 119.769,116.608 119.859,116.513 L 119.893,116.477 C 119.975,116.399 120.056,116.319 120.14,116.232 C 120.252,116.124 120.364,115.997 120.483,115.87 C 120.562,115.783 120.635,115.7 120.724,115.613 C 121.686,114.558 122.565,113.496 123.322,112.45 L 123.98,111.514 C 124.032,111.438 124.089,111.357 124.149,111.276 C 124.175,111.236 124.205,111.193 124.234,111.146 C 124.253,111.106 124.283,111.072 124.305,111.036 C 124.415,110.869 124.518,110.702 124.627,110.544 C 124.685,110.46 124.731,110.377 124.781,110.295 C 124.832,110.209 124.882,110.124 124.936,110.036 L 125.25,109.52 C 125.32,109.41 125.385,109.303 125.448,109.189 L 125.557,109.007 L 125.842,108.479 C 125.899,108.394 125.95,108.302 125.999,108.214 L 126.414,107.417 C 126.488,107.266 126.558,107.114 126.633,106.971 C 126.738,106.758 126.842,106.552 126.936,106.34 C 127.259,105.663 127.539,104.981 127.81,104.32 L 127.855,104.203 C 128.355,102.91 128.802,101.562 129.145,100.296 C 129.438,99.183 129.629,98.25 129.785,97.465 C 129.817,97.248 129.856,97.066 129.879,96.913 L 129.925,96.663 C 129.937,96.597 129.943,96.54 129.946,96.5 L 169.558,102.587 Z" marker-start="none" marker-end="none"/>
    </g>
    <mask id="TranspMask_4">
     <rect x="-10%" y="-10%" width="120%" height="120%" fill="#6d6d6d" stroke="none"/>
    </mask>
    <g id="Group_4" stroke="none" stroke-linejoin="miter" stroke-width="2.701" fill="#ffffff" stroke-miterlimit="79.8403193612775" mask="url(#TranspMask_4)">
     <path d="M 28.889,52.813 L 28.514,53.451 C 28.419,53.599 28.312,53.788 28.183,54 L 28.133,54.085 C 28.019,54.287 27.893,54.512 27.749,54.757 L 27.639,54.956 C 26.972,56.131 25.939,58.04 24.803,60.489 C 24.284,61.601 23.748,62.852 23.161,64.306 C 23.063,64.527 22.976,64.753 22.892,64.989 C 22.846,65.11 22.8,65.228 22.749,65.349 L 22.241,66.714 C 22.146,66.983 22.052,67.254 21.956,67.534 L 21.897,67.703 C 21.784,68.015 21.668,68.335 21.57,68.664 L 21.193,69.817 C 21.1,70.084 21.022,70.359 20.942,70.632 L 20.158,73.415 C 19.683,75.249 19.316,76.885 19.023,78.408 C 18.405,81.597 17.982,84.954 17.763,88.4 C 17.586,91.246 17.574,94.203 17.728,97.181 C 17.835,99.26 18.022,101.338 18.285,103.363 C 18.352,103.85 18.413,104.267 18.466,104.609 C 18.489,104.787 18.513,104.949 18.535,105.084 C 18.59,105.484 18.628,105.694 18.628,105.694 L 18.648,105.817 L 58.706,99.33 L 58.683,99.201 C 58.678,99.198 58.655,99.1 58.633,98.915 C 58.627,98.829 58.606,98.727 58.591,98.608 C 58.571,98.456 58.543,98.283 58.514,98.081 C 58.389,97.11 58.299,96.105 58.249,95.095 C 58.171,93.654 58.177,92.233 58.266,90.872 C 58.372,89.166 58.578,87.557 58.866,86.086 C 59.019,85.26 59.217,84.453 59.406,83.703 L 59.79,82.363 C 59.821,82.233 59.854,82.111 59.899,81.992 C 59.962,81.802 60.022,81.62 60.079,81.436 C 60.14,81.254 60.2,81.074 60.263,80.899 C 60.33,80.72 60.385,80.541 60.451,80.366 L 60.709,79.686 C 60.753,79.58 60.789,79.47 60.837,79.367 C 61.142,78.605 61.39,78.029 61.623,77.54 C 62.184,76.326 62.674,75.432 62.983,74.892 L 63.056,74.767 C 63.117,74.657 63.169,74.556 63.219,74.465 L 63.4,74.167 C 63.499,74 63.552,73.911 63.552,73.911 L 63.619,73.803 L 28.889,52.813 M 18.859,105.532 C 18.839,105.429 18.816,105.267 18.78,105.049 C 18.762,104.906 18.737,104.75 18.717,104.57 C 18.663,104.229 18.6,103.817 18.536,103.334 C 18.276,101.317 18.083,99.236 17.977,97.165 C 17.826,94.201 17.839,91.254 18.012,88.414 C 18.23,84.984 18.653,81.633 19.272,78.457 C 19.562,76.933 19.932,75.306 20.402,73.481 L 21.184,70.707 C 21.263,70.434 21.342,70.163 21.433,69.895 L 21.806,68.737 C 21.909,68.416 22.023,68.099 22.136,67.789 L 22.194,67.616 C 22.289,67.337 22.386,67.067 22.479,66.8 L 22.749,66.057 L 22.986,65.437 C 23.036,65.318 23.079,65.196 23.127,65.08 C 23.208,64.847 23.295,64.621 23.393,64.399 C 23.98,62.953 24.515,61.703 25.033,60.595 C 26.166,58.154 27.197,56.251 27.858,55.084 L 27.972,54.879 C 28.107,54.637 28.24,54.414 28.349,54.212 L 28.401,54.129 C 28.524,53.918 28.635,53.731 28.73,53.579 L 28.977,53.16 L 63.275,73.89 C 63.252,73.928 63.222,73.979 63.187,74.039 L 63,74.344 C 62.949,74.437 62.896,74.536 62.836,74.639 L 62.762,74.767 C 62.452,75.306 61.96,76.213 61.396,77.437 C 61.161,77.922 60.916,78.507 60.605,79.27 C 60.558,79.374 60.515,79.484 60.473,79.6 L 60.21,80.28 C 60.149,80.46 60.092,80.639 60.026,80.813 C 59.962,80.994 59.892,81.173 59.843,81.359 C 59.779,81.541 59.722,81.723 59.659,81.909 C 59.623,82.035 59.583,82.162 59.548,82.293 L 59.167,83.64 C 58.969,84.396 58.769,85.206 58.622,86.036 C 58.328,87.516 58.123,89.138 58.009,90.853 C 57.925,92.225 57.919,93.657 57.996,95.107 C 58.043,96.125 58.136,97.136 58.266,98.113 C 58.292,98.317 58.32,98.491 58.346,98.646 C 58.356,98.76 58.374,98.863 58.386,98.944 C 58.393,99.017 58.403,99.077 58.409,99.123 L 18.859,105.532 Z" marker-start="none" marker-end="none"/>
    </g>
    <mask id="TranspMask_5">
     <rect x="-10%" y="-10%" width="120%" height="120%" fill="#bcbcbc" stroke="none"/>
    </mask>
    <g id="Group_5" stroke="none" stroke-linejoin="miter" stroke-width="2.701" fill="#ffffff" stroke-miterlimit="79.8403193612775" mask="url(#TranspMask_5)">
     <path d="M 116.731,122.6 L 116.626,122.683 C 116.626,122.683 116.553,122.74 116.407,122.839 C 116.336,122.882 116.25,122.941 116.156,123.01 C 116.037,123.093 115.905,123.186 115.739,123.295 C 114.941,123.821 114.12,124.32 113.301,124.783 C 112.151,125.425 110.889,126.041 109.646,126.56 C 109.523,126.617 109.391,126.666 109.266,126.72 L 108.423,127.046 C 108.296,127.093 108.175,127.143 108.046,127.186 L 107.216,127.479 C 107.16,127.499 107.098,127.516 107.036,127.536 L 106.373,127.75 C 106.232,127.792 106.089,127.831 105.941,127.878 C 105.706,127.947 105.469,128.019 105.225,128.076 C 104.466,128.295 103.695,128.467 102.906,128.637 L 102.564,128.701 C 102.293,128.753 102.031,128.81 101.761,128.85 C 101.693,128.859 101.618,128.874 101.547,128.888 C 101.432,128.906 101.313,128.93 101.196,128.944 L 100.629,129.023 C 100.505,129.046 100.386,129.06 100.266,129.074 L 100.083,129.099 C 99.982,129.106 99.885,129.121 99.786,129.134 C 99.703,129.147 99.616,129.156 99.538,129.165 L 99.007,129.214 C 98.916,129.225 98.829,129.234 98.745,129.242 C 98.668,129.249 98.585,129.253 98.508,129.26 L 98.225,129.279 C 97.98,129.3 97.733,129.319 97.496,129.326 C 97.392,129.33 97.289,129.336 97.194,129.341 L 96.852,129.355 C 96.753,129.355 96.654,129.359 96.556,129.362 C 96.41,129.367 96.262,129.371 96.113,129.374 C 95.979,129.374 95.839,129.374 95.7,129.376 L 95.302,129.379 C 95.229,129.374 95.159,129.376 95.088,129.374 L 94.928,129.371 C 94.824,129.369 94.719,129.367 94.615,129.359 C 94.49,129.362 94.369,129.359 94.253,129.353 C 94.105,129.35 93.966,129.339 93.837,129.33 L 93.669,129.326 C 93.553,129.323 93.454,129.317 93.359,129.313 L 93.209,129.3 C 93.076,129.288 92.958,129.279 92.868,129.274 L 92.648,129.26 C 92.613,129.257 92.592,129.255 92.586,129.255 L 92.456,129.239 L 92.45,129.371 L 89.097,169.672 L 89.216,169.69 C 89.216,169.69 89.268,169.696 89.383,169.706 L 89.827,169.739 C 90.023,169.75 90.263,169.766 90.552,169.789 L 90.712,169.8 C 90.961,169.816 91.235,169.833 91.538,169.845 C 91.887,169.863 92.275,169.883 92.698,169.902 L 92.755,169.9 C 93.062,169.92 93.38,169.923 93.715,169.93 L 94.462,169.945 C 94.636,169.946 94.809,169.954 94.992,169.954 L 97.019,169.942 L 98.606,169.9 C 98.941,169.883 99.273,169.863 99.614,169.846 C 100.219,169.821 100.835,169.775 101.485,169.725 L 101.716,169.71 C 101.882,169.698 102.049,169.68 102.215,169.669 L 102.263,169.667 C 102.415,169.653 102.564,169.639 102.712,169.623 L 102.817,169.61 C 103.19,169.577 103.557,169.542 103.936,169.501 C 104.195,169.476 104.453,169.439 104.716,169.409 L 105.333,169.334 C 105.638,169.297 105.945,169.259 106.246,169.213 L 107.426,169.042 C 107.693,169.006 107.949,168.956 108.21,168.911 C 108.352,168.89 108.48,168.862 108.622,168.842 C 109.365,168.721 110.135,168.569 110.872,168.421 L 111.043,168.386 C 112.945,167.992 114.498,167.621 115.936,167.219 C 116.528,167.063 117.131,166.882 117.708,166.712 L 118.356,166.517 C 118.761,166.389 119.159,166.26 119.556,166.131 L 120.153,165.94 C 120.35,165.87 120.544,165.802 120.745,165.732 L 123.723,164.637 L 125.299,164.003 C 127.95,162.89 130.568,161.617 133.062,160.223 C 134.828,159.239 136.588,158.164 138.278,157.035 C 138.711,156.751 139.073,156.501 139.357,156.299 L 139.693,156.068 C 140.022,155.843 140.193,155.712 140.193,155.712 L 140.292,155.641 L 140.22,155.54 L 116.731,122.6 M 92.689,129.514 L 92.849,129.526 C 92.94,129.53 93.06,129.542 93.192,129.547 L 93.34,129.558 C 93.438,129.569 93.544,129.57 93.665,129.577 L 93.824,129.583 C 93.956,129.59 94.093,129.599 94.239,129.6 C 94.36,129.612 94.48,129.612 94.613,129.612 C 94.709,129.618 94.815,129.618 94.92,129.62 L 95.08,129.626 C 95.153,129.63 95.224,129.63 95.302,129.632 L 95.703,129.627 C 95.836,129.627 95.979,129.627 96.12,129.627 C 96.269,129.622 96.416,129.618 96.565,129.613 C 96.666,129.612 96.761,129.606 96.859,129.609 L 97.209,129.592 C 97.305,129.583 97.403,129.579 97.505,129.577 C 97.745,129.57 97.992,129.549 98.245,129.53 L 98.503,129.509 C 98.602,129.507 98.688,129.499 98.772,129.495 C 98.858,129.486 98.945,129.477 99.033,129.466 L 99.557,129.416 C 99.649,129.404 99.733,129.396 99.813,129.381 C 99.913,129.371 100.013,129.359 100.112,129.347 L 100.295,129.326 C 100.418,129.309 100.548,129.296 100.669,129.274 L 101.232,129.193 C 101.35,129.177 101.469,129.156 101.593,129.136 C 101.663,129.123 101.733,129.108 101.802,129.096 C 102.07,129.058 102.339,129.003 102.614,128.952 L 102.958,128.883 C 103.755,128.71 104.528,128.537 105.293,128.32 C 105.534,128.26 105.775,128.19 106.012,128.116 C 106.16,128.076 106.302,128.026 106.446,127.991 L 107.109,127.772 C 107.173,127.755 107.239,127.738 107.3,127.716 L 108.138,127.421 C 108.262,127.376 108.386,127.326 108.509,127.28 L 109.358,126.949 C 109.488,126.896 109.612,126.845 109.741,126.792 C 111.013,126.263 112.249,125.657 113.423,125.003 C 114.249,124.542 115.078,124.036 115.881,123.502 C 116.039,123.396 116.18,123.297 116.299,123.214 C 116.392,123.148 116.472,123.093 116.543,123.045 C 116.597,123.013 116.642,122.983 116.678,122.957 L 139.946,155.585 C 139.861,155.642 139.732,155.739 139.549,155.859 L 139.213,156.092 C 138.926,156.293 138.567,156.54 138.141,156.826 C 136.456,157.956 134.703,159.021 132.941,160 C 130.451,161.392 127.846,162.66 125.199,163.771 L 122.473,164.842 L 121.385,165.242 L 120.655,165.497 C 120.462,165.563 120.269,165.632 120.07,165.702 L 119.477,165.891 C 119.082,166.02 118.686,166.153 118.282,166.273 L 117.638,166.466 C 117.059,166.638 116.466,166.82 115.869,166.976 C 114.438,167.375 112.883,167.745 110.992,168.139 L 110.83,168.179 C 110.09,168.323 109.323,168.476 108.584,168.593 C 108.443,168.616 108.305,168.64 108.165,168.663 C 107.906,168.709 107.645,168.756 107.386,168.792 L 106.214,168.967 C 105.906,169.01 105.605,169.049 105.306,169.086 L 104.683,169.158 C 104.426,169.193 104.164,169.224 103.909,169.249 C 103.533,169.288 103.159,169.326 102.789,169.361 L 102.689,169.376 C 102.539,169.388 102.393,169.404 102.242,169.418 L 102.196,169.42 C 102.031,169.435 101.867,169.445 101.702,169.459 L 101.464,169.477 C 100.818,169.526 100.205,169.572 99.599,169.597 C 99.26,169.612 98.929,169.632 98.597,169.641 L 96.711,169.696 L 94.99,169.702 C 94.809,169.703 94.639,169.702 94.47,169.696 L 93.723,169.677 C 93.39,169.672 93.068,169.667 92.765,169.653 L 92.705,169.647 C 92.287,169.632 91.9,169.61 91.553,169.597 C 91.25,169.582 90.977,169.562 90.732,169.55 L 90.572,169.54 C 90.283,169.516 90.04,169.499 89.841,169.489 L 89.395,169.452 C 89.386,169.459 89.375,169.456 89.366,169.452 L 92.689,129.514 Z" marker-start="none" marker-end="none"/>
    </g>
    <mask id="TranspMask_6">
     <rect x="-10%" y="-10%" width="120%" height="120%" fill="#dbdbdb" stroke="none"/>
    </mask>
    <g id="Group_6" stroke="none" stroke-linejoin="miter" stroke-width="2.701" fill="#ffffff" stroke-miterlimit="79.8403193612775" mask="url(#TranspMask_6)">
     <path d="M 111.775,132.259 L 111.708,132.288 C 111.708,132.288 111.603,132.336 111.405,132.412 L 111.293,132.461 C 111.222,132.486 111.149,132.516 111.067,132.555 L 110.614,132.72 C 110.549,132.742 110.485,132.77 110.412,132.796 C 110.31,132.84 110.196,132.88 110.079,132.916 L 109.947,132.966 C 109.792,133.016 109.638,133.073 109.481,133.13 C 109.375,133.169 109.27,133.204 109.161,133.243 L 108.836,133.346 C 108.61,133.417 108.386,133.487 108.165,133.566 C 107.979,133.617 107.796,133.67 107.611,133.727 C 107.342,133.809 107.089,133.884 106.832,133.946 L 106.627,134 C 106.485,134.04 106.352,134.082 106.219,134.113 L 105.988,134.173 C 105.877,134.199 105.769,134.224 105.664,134.252 C 105.592,134.267 105.519,134.284 105.45,134.3 C 105.363,134.324 105.275,134.349 105.196,134.365 C 105.099,134.384 105.008,134.406 104.927,134.425 L 104.832,134.442 C 104.628,134.489 104.513,134.513 104.513,134.513 L 104.443,134.529 L 104.458,134.602 L 115.795,187.499 L 115.867,187.486 C 115.867,187.486 116.127,187.429 116.583,187.326 C 116.813,187.275 117.09,187.213 117.411,187.143 C 117.633,187.093 117.877,187.035 118.139,186.966 L 118.479,186.883 C 118.863,186.789 119.285,186.683 119.733,186.572 C 120.07,186.487 120.415,186.396 120.771,186.299 L 121.133,186.2 C 121.885,186 122.686,185.763 123.456,185.532 C 123.688,185.463 123.923,185.389 124.161,185.324 C 126.229,184.672 128.265,183.976 129.743,183.409 C 130.113,183.262 130.459,183.128 130.769,183.015 C 131.069,182.89 131.335,182.79 131.547,182.702 L 132.309,182.397 L 132.276,182.327 L 111.775,132.259 M 104.619,134.642 C 104.669,134.63 104.756,134.609 104.865,134.586 L 104.958,134.566 C 105.036,134.548 105.125,134.529 105.229,134.509 C 105.309,134.489 105.399,134.467 105.492,134.442 C 105.555,134.427 105.626,134.41 105.695,134.389 C 105.802,134.369 105.906,134.344 106.02,134.313 L 106.253,134.256 C 106.39,134.223 106.528,134.184 106.669,134.146 L 106.871,134.09 C 107.124,134.025 107.385,133.949 107.656,133.869 C 107.839,133.813 108.024,133.76 108.208,133.703 C 108.437,133.63 108.659,133.557 108.88,133.487 L 109.21,133.379 C 109.32,133.339 109.426,133.306 109.528,133.268 C 109.688,133.213 109.842,133.156 109.992,133.106 L 110.128,133.056 C 110.246,133.016 110.359,132.972 110.466,132.931 C 110.535,132.91 110.602,132.88 110.666,132.855 L 111.119,132.687 C 111.203,132.652 111.281,132.623 111.349,132.593 L 111.465,132.547 C 111.566,132.506 111.646,132.472 111.697,132.453 L 132.114,182.316 L 131.496,182.562 C 131.279,182.652 131.017,182.76 130.716,182.881 C 130.408,182.996 130.062,183.123 129.69,183.266 C 128.212,183.836 126.182,184.533 124.115,185.178 C 123.882,185.249 123.651,185.318 123.418,185.389 C 122.648,185.623 121.847,185.862 121.095,186.055 L 120.733,186.155 C 120.378,186.254 120.034,186.346 119.701,186.435 C 119.256,186.546 118.831,186.649 118.442,186.743 L 118.102,186.826 C 117.841,186.892 117.602,186.952 117.379,187 C 117.059,187.07 116.782,187.133 116.553,187.184 C 116.236,187.253 116.017,187.303 115.909,187.329 L 104.619,134.642 Z" marker-start="none" marker-end="none"/>
    </g>
    <mask id="TranspMask_7">
     <rect x="-10%" y="-10%" width="120%" height="120%" fill="#9e9e9e" stroke="none"/>
    </mask>
    <g id="Group_7" stroke="none" stroke-linejoin="miter" stroke-width="2.701" fill="#ffffff" stroke-miterlimit="79.8403193612775" mask="url(#TranspMask_7)">
     <path d="M 61.047,107.592 L 60.936,107.633 L 8.796,129.359 L 8.832,129.457 C 8.832,129.457 8.844,129.487 8.869,129.551 C 8.886,129.592 8.913,129.657 8.945,129.739 L 8.973,129.803 C 9.071,130.03 9.212,130.352 9.391,130.77 C 9.779,131.68 10.333,132.888 10.952,134.175 C 12.532,137.459 14.557,141.079 16.515,144.103 L 16.894,144.684 C 17.048,144.924 17.203,145.165 17.36,145.4 L 18.23,146.677 C 18.373,146.883 18.521,147.094 18.665,147.303 C 18.805,147.509 18.949,147.715 19.097,147.92 C 19.393,148.326 19.679,148.72 19.966,149.114 C 20.204,149.443 20.45,149.765 20.685,150.073 L 20.826,150.253 C 21.113,150.626 21.386,150.986 21.659,151.339 L 21.91,151.655 C 22.38,152.236 22.823,152.783 23.239,153.291 C 23.742,153.88 24.201,154.426 24.613,154.91 C 25.03,155.38 25.395,155.793 25.696,156.129 L 25.824,156.27 C 26.066,156.543 26.26,156.76 26.407,156.911 L 26.727,157.256 L 26.805,157.184 L 68.201,118.737 L 68.13,118.66 C 68.13,118.66 68.093,118.626 68.036,118.557 C 67.976,118.503 67.919,118.436 67.846,118.353 L 67.699,118.187 C 67.589,118.066 67.46,117.922 67.32,117.762 C 67.162,117.572 66.978,117.36 66.774,117.123 C 65.938,116.131 64.969,114.805 64.12,113.499 C 63.352,112.303 62.548,110.869 61.919,109.567 C 61.646,108.989 61.434,108.537 61.3,108.209 C 61.231,108.046 61.169,107.913 61.132,107.824 C 61.112,107.787 61.103,107.753 61.09,107.73 L 61.047,107.592 M 9.063,129.477 L 60.92,107.867 C 60.926,107.88 60.934,107.894 60.94,107.91 C 60.979,108 61.033,108.126 61.104,108.293 C 61.24,108.619 61.455,109.075 61.728,109.653 C 62.363,110.97 63.167,112.406 63.949,113.616 C 64.796,114.927 65.771,116.258 66.615,117.263 C 66.822,117.495 67.002,117.712 67.156,117.899 C 67.302,118.063 67.429,118.206 67.542,118.327 L 67.686,118.49 C 67.763,118.579 67.826,118.652 67.88,118.707 C 67.891,118.713 67.897,118.722 67.905,118.73 L 26.739,156.956 L 26.558,156.764 C 26.415,156.613 26.221,156.399 25.98,156.129 L 25.855,155.99 C 25.553,155.65 25.187,155.239 24.768,154.769 C 24.362,154.29 23.903,153.745 23.402,153.156 C 22.984,152.652 22.541,152.101 22.076,151.527 L 21.826,151.212 C 21.554,150.861 21.279,150.496 20.995,150.129 L 20.857,149.949 C 20.616,149.638 20.372,149.316 20.139,148.989 C 19.849,148.596 19.563,148.199 19.267,147.793 C 19.119,147.59 18.976,147.39 18.836,147.183 C 18.689,146.972 18.545,146.763 18.4,146.553 L 17.535,145.287 C 17.385,145.046 17.225,144.81 17.065,144.566 L 16.686,143.992 C 14.739,140.969 12.717,137.363 11.14,134.083 C 10.522,132.799 9.97,131.591 9.585,130.684 C 9.404,130.27 9.267,129.944 9.17,129.719 L 9.139,129.656 C 9.106,129.582 9.082,129.522 9.063,129.477 Z" marker-start="none" marker-end="none"/>
    </g>
    <mask id="TranspMask_8">
     <rect x="-10%" y="-10%" width="120%" height="120%" fill="#afafaf" stroke="none"/>
    </mask>
    <g id="Group_8" stroke="none" stroke-linejoin="miter" stroke-width="2.701" fill="#ffffff" stroke-miterlimit="79.8403193612775" mask="url(#TranspMask_8)">
     <path d="M 138.164,13.467 C 138.164,13.467 137.826,13.286 137.185,12.956 C 136.94,12.821 136.635,12.667 136.29,12.497 L 135.749,12.226 C 135.347,12.02 134.893,11.79 134.388,11.565 L 132.911,10.873 C 132.731,10.791 132.552,10.711 132.362,10.63 L 132.262,10.584 C 131.536,10.26 130.78,9.925 129.946,9.596 C 128.199,8.867 126.212,8.126 124.039,7.411 C 119.195,5.794 113.901,4.534 108.719,3.781 C 105.841,3.361 102.869,3.074 99.887,2.933 C 96.866,2.796 93.786,2.809 90.726,2.974 C 87.679,3.137 84.623,3.46 81.626,3.937 C 78.717,4.384 75.797,4.988 72.95,5.728 C 70.279,6.417 67.613,7.247 65.026,8.176 C 62.755,8.994 60.435,9.933 58.138,10.975 L 56.605,11.69 C 56.109,11.932 55.626,12.17 55.152,12.397 C 54.748,12.597 54.353,12.804 53.974,13.006 L 53.59,13.201 C 53.219,13.402 52.857,13.585 52.505,13.78 L 51.314,14.437 C 51.222,14.493 51.127,14.54 51.035,14.592 C 50.942,14.65 50.844,14.701 50.753,14.751 L 50.099,15.137 C 49.454,15.514 48.839,15.873 48.299,16.211 C 48.079,16.351 47.869,16.48 47.665,16.61 C 47.343,16.808 47.047,16.988 46.776,17.166 L 45.44,18.041 C 45.251,18.166 45.097,18.267 44.983,18.349 L 44.605,18.605 L 44.709,18.757 L 74.133,61.956 L 74.278,61.86 C 74.278,61.86 74.311,61.837 74.379,61.791 C 74.437,61.744 74.526,61.686 74.646,61.615 C 74.753,61.542 74.857,61.473 74.979,61.394 L 75.122,61.303 C 75.237,61.226 75.356,61.147 75.485,61.066 C 75.575,61.015 75.666,60.963 75.763,60.899 C 75.916,60.799 76.081,60.71 76.253,60.604 C 76.349,60.546 76.456,60.486 76.556,60.42 C 76.629,60.378 76.706,60.334 76.782,60.289 C 76.823,60.265 76.866,60.244 76.912,60.216 L 77.512,59.887 C 77.603,59.832 77.698,59.783 77.797,59.735 C 77.881,59.692 77.966,59.649 78.049,59.605 L 78.242,59.497 C 78.365,59.436 78.486,59.374 78.61,59.314 L 79.412,58.923 C 79.558,58.854 79.713,58.787 79.867,58.717 C 81.905,57.788 83.999,57.046 86.096,56.505 C 88.506,55.88 91.098,55.479 93.603,55.344 C 96.099,55.208 98.713,55.327 101.164,55.681 C 102.293,55.843 103.442,56.07 104.566,56.343 C 105.701,56.618 106.679,56.898 107.556,57.191 C 108.339,57.464 109.243,57.78 110.007,58.11 C 110.271,58.207 110.514,58.317 110.746,58.423 L 111.251,58.64 C 111.295,58.66 111.355,58.687 111.412,58.714 L 111.866,58.928 C 112.036,59.006 112.19,59.085 112.324,59.154 L 112.718,59.344 C 112.829,59.4 112.927,59.446 113.012,59.494 L 113.599,59.813 L 113.685,59.65 L 138.318,13.553 L 138.164,13.467 M 45.097,18.7 C 45.123,18.682 45.153,18.662 45.182,18.64 C 45.296,18.564 45.449,18.465 45.637,18.338 L 46.977,17.464 C 47.239,17.286 47.532,17.107 47.853,16.907 C 48.052,16.786 48.27,16.653 48.489,16.513 C 49.022,16.175 49.633,15.824 50.276,15.444 L 50.93,15.06 C 51.02,15.009 51.112,14.957 51.209,14.903 C 51.3,14.854 51.395,14.802 51.492,14.746 L 52.68,14.086 C 53.028,13.896 53.383,13.709 53.756,13.517 L 54.137,13.317 C 54.516,13.117 54.909,12.917 55.309,12.72 C 55.776,12.487 56.262,12.247 56.756,12.008 L 58.285,11.3 C 60.576,10.263 62.885,9.324 65.144,8.507 C 67.724,7.58 70.38,6.759 73.042,6.071 C 75.872,5.334 78.78,4.735 81.686,4.284 C 84.666,3.813 87.715,3.494 90.75,3.331 C 93.797,3.166 96.865,3.153 99.874,3.286 C 102.845,3.426 105.805,3.717 108.673,4.133 C 113.832,4.887 119.109,6.133 123.929,7.74 C 126.089,8.462 128.069,9.201 129.812,9.928 C 130.648,10.254 131.392,10.584 132.118,10.911 L 132.223,10.954 C 132.406,11.038 132.589,11.117 132.766,11.192 L 134.239,11.883 C 134.739,12.116 135.189,12.339 135.593,12.543 L 136.133,12.81 C 136.473,12.987 136.768,13.131 137.02,13.266 C 137.406,13.464 137.679,13.614 137.838,13.697 L 113.449,59.326 L 113.202,59.193 C 113.106,59.13 112.989,59.083 112.869,59.025 L 112.488,58.837 C 112.345,58.76 112.19,58.685 112.01,58.604 L 111.562,58.39 C 111.509,58.366 111.455,58.344 111.403,58.32 L 110.889,58.092 C 110.652,57.991 110.406,57.878 110.147,57.78 C 109.37,57.447 108.458,57.127 107.667,56.857 C 106.786,56.556 105.793,56.276 104.652,55.998 C 103.512,55.723 102.359,55.501 101.215,55.327 C 98.739,54.97 96.1,54.855 93.579,54.99 C 91.056,55.126 88.438,55.528 86.008,56.164 C 83.89,56.708 81.777,57.459 79.722,58.39 C 79.563,58.467 79.412,58.533 79.259,58.604 L 78.456,58.99 C 78.333,59.05 78.208,59.121 78.079,59.184 L 77.881,59.286 C 77.797,59.334 77.716,59.379 77.638,59.417 C 77.536,59.467 77.433,59.52 77.338,59.577 L 76.747,59.903 C 76.698,59.93 76.647,59.957 76.601,59.984 C 76.522,60.03 76.446,60.077 76.373,60.121 C 76.275,60.181 76.175,60.239 76.072,60.296 C 75.892,60.4 75.726,60.499 75.569,60.602 C 75.477,60.657 75.39,60.716 75.302,60.767 C 75.169,60.85 75.04,60.93 74.932,61.004 L 74.789,61.09 C 74.664,61.174 74.557,61.246 74.465,61.306 C 74.362,61.369 74.284,61.417 74.224,61.465 L 45.097,18.7 Z" marker-start="none" marker-end="none"/>
    </g>
    <path d="M 42.016,138.534 L 39.671,140.681 L 39.734,140.75 C 39.734,140.75 40.022,141.063 40.522,141.605 C 41.04,142.134 41.762,142.902 42.675,143.782 C 43.116,144.23 43.631,144.69 44.156,145.183 C 44.418,145.437 44.706,145.681 44.983,145.933 C 45.264,146.178 45.559,146.449 45.858,146.708 C 46.463,147.213 47.081,147.752 47.731,148.266 C 48.052,148.52 48.382,148.794 48.717,149.044 C 49.048,149.301 49.378,149.558 49.718,149.815 C 52.412,151.85 55.262,153.656 57.458,154.906 C 57.73,155.067 57.997,155.216 58.251,155.351 C 58.499,155.488 58.741,155.624 58.967,155.744 C 59.416,155.994 59.813,156.197 60.141,156.369 C 60.8,156.705 61.172,156.896 61.172,156.896 L 61.256,156.94 L 62.677,154.092 L 62.595,154.049 C 62.595,154.049 62.239,153.865 61.602,153.54 C 61.293,153.382 60.908,153.183 60.481,152.947 C 60.266,152.827 60.037,152.7 59.793,152.569 C 59.552,152.439 59.296,152.3 59.038,152.145 C 56.935,150.949 54.203,149.218 51.63,147.272 C 51.309,147.024 50.985,146.779 50.665,146.535 C 50.352,146.292 50.042,146.038 49.726,145.789 C 49.106,145.296 48.521,144.784 47.938,144.297 C 47.647,144.052 47.376,143.803 47.101,143.559 C 46.832,143.312 46.566,143.087 46.313,142.847 C 45.804,142.364 45.316,141.925 44.891,141.5 C 44.014,140.66 43.331,139.929 42.836,139.422 C 42.353,138.9 42.08,138.603 42.08,138.603 L 42.016,138.534 Z M 42.699,139.551 C 43.194,140.056 43.881,140.793 44.76,141.635 C 45.185,142.06 45.681,142.505 46.184,142.984 C 46.437,143.224 46.713,143.459 46.976,143.698 C 47.249,143.942 47.524,144.193 47.817,144.44 C 48.396,144.925 48.987,145.441 49.609,145.936 C 49.921,146.183 50.237,146.441 50.55,146.684 C 50.872,146.93 51.194,147.173 51.515,147.421 C 54.098,149.373 56.836,151.11 58.943,152.308 C 59.203,152.463 59.463,152.604 59.704,152.734 C 59.946,152.865 60.175,152.992 60.39,153.112 C 60.819,153.348 61.206,153.549 61.517,153.707 C 61.835,153.869 62.083,153.996 62.251,154.083 L 62.425,154.173 L 61.172,156.685 L 60.988,156.591 C 60.813,156.501 60.556,156.37 60.228,156.202 C 59.898,156.03 59.505,155.829 59.056,155.579 C 58.832,155.459 58.59,155.325 58.34,155.186 C 58.088,155.051 57.823,154.904 57.553,154.743 C 55.361,153.495 52.517,151.695 49.831,149.664 C 49.493,149.409 49.163,149.152 48.83,148.895 C 48.497,148.645 48.173,148.377 47.848,148.119 C 47.2,147.607 46.588,147.072 45.979,146.565 C 45.676,146.302 45.399,146.047 45.108,145.792 C 44.825,145.536 44.547,145.3 44.285,145.046 C 43.754,144.549 43.247,144.095 42.808,143.649 C 41.895,142.769 41.177,142.005 40.659,141.476 C 40.41,141.206 40.213,140.992 40.079,140.847 L 39.936,140.692 L 42.004,138.799 L 42.138,138.944 C 42.267,139.083 42.456,139.289 42.699,139.551 Z" fill="#ffffff" stroke-width="0.5" stroke="none" fill-rule="evenodd" marker-start="none" marker-end="none" stroke-miterlimit="79.8403193612775"/>
    <path d="M 48.311,138.297 L 46.108,140.587 L 46.173,140.652 C 46.174,140.653 46.231,140.71 46.347,140.816 C 46.455,140.92 46.618,141.077 46.832,141.272 C 47.039,141.462 47.297,141.709 47.589,141.974 C 47.886,142.242 48.219,142.54 48.589,142.87 C 50.069,144.166 52.112,145.819 54.26,147.33 C 56.401,148.841 58.647,150.213 60.366,151.17 C 60.797,151.408 61.195,151.622 61.543,151.811 C 61.895,151.999 62.21,152.159 62.464,152.292 C 62.966,152.549 63.261,152.703 63.261,152.703 L 63.346,152.747 L 64.767,149.9 L 64.686,149.857 C 64.685,149.857 64.405,149.709 63.919,149.465 C 63.677,149.334 63.373,149.182 63.044,149.008 C 62.708,148.82 62.326,148.613 61.916,148.387 C 60.281,147.472 58.138,146.169 56.093,144.726 C 54.046,143.291 52.097,141.71 50.69,140.475 C 50.338,140.159 50.01,139.873 49.727,139.623 C 49.452,139.365 49.203,139.136 49.006,138.948 C 48.807,138.761 48.649,138.614 48.542,138.517 L 48.422,138.399 L 48.379,138.359 L 48.311,138.297 Z M 48.414,138.654 C 48.522,138.751 48.678,138.898 48.877,139.085 C 49.074,139.273 49.325,139.504 49.6,139.762 C 49.887,140.014 50.213,140.3 50.565,140.616 C 51.978,141.855 53.931,143.44 55.984,144.879 C 58.035,146.328 60.184,147.633 61.825,148.552 C 62.237,148.78 62.617,148.985 62.955,149.173 C 63.292,149.351 63.586,149.499 63.832,149.632 C 64.076,149.754 64.267,149.852 64.397,149.919 L 64.516,149.981 L 63.263,152.491 L 63.137,152.426 C 63.001,152.356 62.802,152.253 62.551,152.125 C 62.295,151.992 61.982,151.832 61.632,151.646 C 61.284,151.455 60.888,151.243 60.457,151.005 C 58.744,150.052 56.504,148.684 54.369,147.177 C 52.227,145.67 50.188,144.021 48.714,142.729 C 48.344,142.399 48.011,142.103 47.716,141.835 C 47.422,141.568 47.172,141.329 46.959,141.133 C 46.747,140.94 46.584,140.785 46.476,140.679 L 46.372,140.582 L 48.318,138.561 L 48.414,138.654 Z" fill="#ffffff" stroke-width="0.5" stroke="none" fill-rule="evenodd" marker-start="none" marker-end="none" stroke-miterlimit="79.8403193612775"/>
    <path d="M 163.913,76.299 L 154.416,78.293 L 154.435,78.385 C 154.435,78.384 154.456,78.485 154.495,78.681 C 154.534,78.877 154.586,79.154 154.653,79.519 C 154.689,79.705 154.736,79.89 154.769,80.107 C 154.805,80.328 154.846,80.561 154.889,80.815 C 154.932,81.063 154.982,81.334 155.026,81.616 C 155.065,81.9 155.107,82.193 155.152,82.509 C 155.178,82.658 155.197,82.819 155.213,82.989 C 155.245,83.146 155.259,83.305 155.279,83.474 C 155.315,83.814 155.359,84.162 155.407,84.52 L 155.506,85.617 C 155.539,85.992 155.571,86.376 155.595,86.769 C 155.705,88.334 155.771,90.006 155.747,91.679 C 155.725,93.355 155.642,95.03 155.501,96.587 C 155.361,98.141 155.161,99.592 154.969,100.833 C 154.862,101.453 154.763,102.019 154.667,102.522 C 154.568,103.021 154.482,103.455 154.41,103.813 C 154.251,104.523 154.155,104.939 154.155,104.938 L 154.134,105.03 L 161.615,106.768 L 163.05,107.099 L 163.599,107.227 L 163.619,107.134 C 163.619,107.134 163.723,106.665 163.917,105.832 C 163.995,105.422 164.094,104.918 164.214,104.34 C 164.317,103.76 164.435,103.103 164.558,102.387 C 164.781,100.951 165.015,99.267 165.175,97.462 C 165.332,95.654 165.438,93.716 165.456,91.781 C 165.49,89.838 165.411,87.905 165.288,86.097 C 165.232,85.193 165.138,84.316 165.063,83.489 C 165.014,83.072 164.969,82.672 164.919,82.283 C 164.901,82.093 164.872,81.893 164.852,81.71 L 164.77,81.167 C 164.725,80.803 164.669,80.459 164.621,80.131 C 164.573,79.802 164.521,79.487 164.467,79.205 C 164.423,78.912 164.374,78.638 164.334,78.39 C 164.288,78.135 164.241,77.903 164.2,77.695 C 164.121,77.287 164.06,76.952 164.016,76.731 C 163.97,76.509 163.937,76.386 163.936,76.385 L 163.913,76.299 Z M 163.719,76.791 C 163.766,77.011 163.831,77.341 163.909,77.756 C 163.95,77.96 163.992,78.19 164.036,78.442 C 164.086,78.687 164.131,78.96 164.18,79.251 C 164.224,79.534 164.281,79.86 164.331,80.177 C 164.382,80.502 164.424,80.839 164.479,81.206 C 164.505,81.382 164.532,81.561 164.554,81.747 C 164.576,81.949 164.608,82.119 164.624,82.319 C 164.672,82.706 164.715,83.112 164.771,83.521 L 164.828,84.147 C 164.888,84.782 164.95,85.438 164.995,86.119 C 165.118,87.92 165.19,89.851 165.165,91.78 C 165.14,93.709 165.041,95.635 164.881,97.434 C 164.722,99.235 164.488,100.908 164.26,102.34 C 164.142,103.055 164.032,103.703 163.92,104.281 C 163.804,104.861 163.706,105.368 163.622,105.774 C 163.494,106.341 163.405,106.741 163.357,106.955 L 163.306,106.965 L 161.846,106.596 C 161.893,106.395 161.982,106.002 162.107,105.45 C 162.186,105.044 162.284,104.556 162.401,103.99 C 162.5,103.424 162.607,102.789 162.732,102.092 C 162.952,100.693 163.177,99.055 163.335,97.293 C 163.49,95.535 163.593,93.645 163.611,91.761 C 163.643,89.873 163.566,87.988 163.448,86.222 C 163.393,85.338 163.305,84.487 163.228,83.679 C 163.177,83.277 163.135,82.89 163.089,82.512 C 163.063,82.324 163.04,82.135 163.021,81.954 C 162.993,81.766 162.964,81.593 162.942,81.42 C 162.891,81.068 162.844,80.735 162.802,80.413 C 162.756,80.102 162.693,79.779 162.651,79.505 C 162.605,79.227 162.557,78.963 162.514,78.713 C 162.471,78.466 162.428,78.247 162.385,78.044 C 162.311,77.642 162.25,77.321 162.206,77.104 C 162.189,77.021 162.174,76.953 162.158,76.881 L 163.673,76.566 C 163.689,76.64 163.703,76.708 163.719,76.791 Z M 162.021,77.141 C 162.065,77.356 162.126,77.677 162.2,78.081 C 162.243,78.284 162.286,78.501 162.329,78.746 C 162.372,78.998 162.42,79.258 162.466,79.534 C 162.512,79.838 162.567,80.109 162.615,80.438 C 162.657,80.76 162.704,81.095 162.755,81.445 C 162.777,81.618 162.808,81.799 162.834,81.977 C 162.853,82.156 162.876,82.347 162.902,82.537 C 162.948,82.907 162.99,83.302 163.041,83.7 C 163.118,84.506 163.206,85.353 163.261,86.235 C 163.379,87.997 163.454,89.876 163.424,91.758 C 163.406,93.638 163.303,95.522 163.148,97.276 C 162.99,99.032 162.765,100.666 162.547,102.061 C 162.422,102.756 162.315,103.393 162.216,103.955 C 162.099,104.519 162.001,105.007 161.922,105.411 C 161.832,105.812 161.761,106.129 161.711,106.345 L 161.657,106.582 L 154.358,104.889 L 154.376,104.811 C 154.418,104.626 154.493,104.297 154.593,103.852 C 154.667,103.492 154.753,103.058 154.852,102.557 C 154.948,102.052 155.047,101.484 155.154,100.864 C 155.348,99.619 155.548,98.164 155.688,96.604 C 155.829,95.041 155.912,93.362 155.934,91.682 C 155.96,90.003 155.892,88.325 155.782,86.756 C 155.734,85.968 155.656,85.215 155.594,84.497 C 155.546,84.137 155.502,83.791 155.466,83.453 C 155.446,83.292 155.432,83.119 155.398,82.954 L 155.337,82.48 C 155.294,82.168 155.252,81.873 155.211,81.589 C 155.167,81.303 155.117,81.028 155.074,80.784 C 155.031,80.526 154.99,80.297 154.954,80.078 C 154.921,79.857 154.872,79.656 154.838,79.484 C 154.771,79.119 154.719,78.842 154.68,78.644 L 154.654,78.514 L 154.638,78.437 L 161.97,76.898 L 162.021,77.141 Z" fill="#ffffff" stroke-width="0.5" stroke="none" fill-rule="evenodd" marker-start="none" marker-end="none" stroke-miterlimit="79.8403193612775"/>
    <path d="M 149.85,46.435 L 149.769,46.497 L 148.259,47.698 L 142.243,52.482 L 142.311,52.556 C 142.309,52.554 142.378,52.628 142.498,52.785 C 142.619,52.946 142.795,53.156 143.015,53.46 C 143.238,53.747 143.507,54.098 143.809,54.516 C 143.959,54.72 144.113,54.938 144.281,55.175 C 144.448,55.412 144.619,55.648 144.801,55.905 C 144.973,56.168 145.157,56.441 145.35,56.719 C 145.536,57.001 145.717,57.292 145.917,57.598 C 146.011,57.738 146.117,57.911 146.218,58.058 L 146.511,58.533 C 146.708,58.856 146.909,59.172 147.107,59.521 C 147.906,60.867 148.698,62.344 149.439,63.843 C 150.925,66.847 152.106,69.988 152.856,72.386 C 153.238,73.583 153.517,74.592 153.701,75.3 C 153.799,75.652 153.867,75.932 153.913,76.124 C 153.956,76.315 153.98,76.409 153.98,76.41 L 154.004,76.5 L 161.464,74.688 L 163.228,74.257 L 163.452,74.203 L 163.422,74.108 C 163.423,74.11 163.388,73.997 163.341,73.781 C 163.284,73.559 163.209,73.232 163.095,72.823 C 162.882,72.001 162.564,70.833 162.12,69.45 C 162.007,69.106 161.897,68.748 161.774,68.371 C 161.644,68.003 161.511,67.621 161.372,67.23 C 161.244,66.833 161.095,66.434 160.938,66.023 C 160.784,65.623 160.635,65.197 160.459,64.779 C 159.799,63.094 159.014,61.319 158.169,59.572 C 157.305,57.842 156.4,56.134 155.466,54.569 C 155.245,54.178 155,53.799 154.773,53.428 C 154.659,53.244 154.545,53.058 154.438,52.881 C 154.32,52.692 154.207,52.517 154.093,52.342 C 153.867,51.997 153.645,51.659 153.432,51.332 C 153.212,51.003 152.998,50.696 152.787,50.394 C 152.592,50.093 152.388,49.808 152.196,49.543 C 152,49.267 151.819,49.02 151.648,48.775 C 151.31,48.308 150.974,47.885 150.733,47.555 C 150.481,47.212 150.266,46.953 150.129,46.775 L 149.85,46.435 Z M 149.74,46.763 L 149.895,46.958 C 150.038,47.141 150.243,47.396 150.493,47.733 C 150.748,48.075 151.066,48.478 151.405,48.948 C 151.582,49.189 151.761,49.443 151.952,49.714 C 152.148,49.982 152.347,50.263 152.548,50.556 C 152.754,50.859 152.963,51.169 153.187,51.492 C 153.4,51.818 153.617,52.153 153.844,52.505 C 153.96,52.682 154.073,52.852 154.185,53.032 C 154.294,53.219 154.409,53.402 154.525,53.584 C 154.756,53.957 154.988,54.327 155.211,54.72 C 156.139,56.275 157.048,57.977 157.903,59.707 C 158.742,61.443 159.527,63.196 160.182,64.888 C 160.355,65.307 160.507,65.72 160.656,66.129 C 160.813,66.542 160.963,66.936 161.095,67.325 C 161.229,67.721 161.364,68.101 161.496,68.47 C 161.615,68.84 161.729,69.194 161.839,69.541 C 162.274,70.92 162.597,72.085 162.81,72.898 C 162.922,73.31 162.997,73.626 163.051,73.85 L 163.113,74.09 L 161.604,74.457 L 161.549,74.223 C 161.488,73.994 161.422,73.711 161.312,73.293 C 161.1,72.494 160.785,71.356 160.357,70.006 C 160.247,69.666 160.141,69.331 160.02,68.96 C 159.898,68.601 159.764,68.227 159.632,67.844 C 159.504,67.457 159.359,67.069 159.203,66.676 C 159.057,66.275 158.909,65.867 158.747,65.455 C 158.098,63.812 157.33,62.086 156.503,60.392 C 155.676,58.699 154.783,57.031 153.877,55.509 C 153.662,55.128 153.426,54.76 153.203,54.397 C 153.089,54.218 152.978,54.041 152.87,53.864 C 152.759,53.688 152.648,53.515 152.541,53.344 C 152.321,53.01 152.106,52.67 151.894,52.353 C 151.68,52.039 151.474,51.735 151.276,51.443 C 151.079,51.15 150.883,50.868 150.688,50.611 C 150.504,50.349 150.325,50.099 150.158,49.872 C 149.817,49.403 149.509,49.004 149.26,48.675 C 149.021,48.349 148.816,48.091 148.678,47.914 L 148.526,47.728 L 149.74,46.763 Z M 148.531,48.031 C 148.669,48.208 148.872,48.462 149.109,48.788 C 149.36,49.119 149.666,49.516 150.007,49.983 C 150.172,50.21 150.351,50.458 150.537,50.722 C 150.73,50.977 150.924,51.257 151.121,51.548 C 151.319,51.84 151.525,52.144 151.739,52.458 C 151.951,52.775 152.16,53.107 152.382,53.445 C 152.489,53.614 152.602,53.791 152.711,53.963 C 152.819,54.14 152.93,54.319 153.044,54.496 C 153.269,54.863 153.501,55.225 153.714,55.604 C 154.618,57.122 155.509,58.786 156.334,60.475 C 157.159,62.165 157.925,63.887 158.572,65.524 C 158.734,65.934 158.88,66.338 159.028,66.743 C 159.184,67.136 159.327,67.52 159.453,67.905 C 159.587,68.294 159.719,68.66 159.841,69.019 C 159.956,69.374 160.072,69.739 160.178,70.063 C 160.604,71.409 160.919,72.545 161.131,73.34 C 161.231,73.724 161.315,74.071 161.366,74.268 L 161.421,74.501 L 154.14,76.272 L 154.096,76.081 C 154.05,75.887 153.98,75.605 153.882,75.251 C 153.698,74.543 153.419,73.53 153.035,72.329 C 152.283,69.925 151.098,66.774 149.608,63.76 C 148.865,62.257 148.071,60.776 147.27,59.426 C 147.07,59.075 146.867,58.755 146.672,58.434 C 146.571,58.271 146.473,58.117 146.373,57.952 C 146.264,57.794 146.182,57.655 146.074,57.495 C 145.88,57.199 145.691,56.894 145.505,56.614 C 145.312,56.336 145.13,56.063 144.956,55.8 C 144.778,55.547 144.595,55.293 144.434,55.066 C 144.266,54.829 144.112,54.611 143.96,54.405 C 143.658,53.985 143.387,53.632 143.166,53.347 C 142.948,53.049 142.758,52.819 142.647,52.672 L 142.515,52.505 L 148.378,47.845 L 148.531,48.031 Z" fill="#ffffff" stroke-width="0.5" stroke="none" fill-rule="evenodd" marker-start="none" marker-end="none" stroke-miterlimit="79.8403193612775"/>
    <path d="M 123.833,26.1 L 119.765,34.924 L 119.853,34.963 C 119.852,34.962 119.942,35.002 120.124,35.088 C 120.302,35.17 120.555,35.291 120.887,35.452 C 121.224,35.613 121.62,35.8 122.072,36.046 C 122.529,36.278 123.045,36.537 123.592,36.841 C 123.872,36.993 124.159,37.145 124.449,37.315 C 124.742,37.481 125.048,37.658 125.363,37.843 C 125.67,38.014 125.985,38.212 126.307,38.412 C 126.631,38.615 126.959,38.805 127.29,39.021 C 128.61,39.861 129.981,40.822 131.318,41.827 C 131.651,42.081 131.985,42.332 132.308,42.59 C 132.635,42.853 132.96,43.104 133.283,43.365 C 133.911,43.899 134.53,44.416 135.111,44.942 C 135.705,45.456 136.248,45.987 136.773,46.473 C 137.031,46.726 137.276,46.97 137.522,47.207 C 137.644,47.323 137.76,47.442 137.875,47.56 L 138.213,47.9 C 138.429,48.128 138.637,48.344 138.838,48.549 C 139.033,48.751 139.214,48.954 139.383,49.139 C 139.559,49.327 139.72,49.502 139.871,49.669 C 140.016,49.834 140.149,49.99 140.267,50.124 C 140.513,50.4 140.702,50.608 140.832,50.765 C 140.898,50.833 140.946,50.892 140.976,50.929 L 141.085,51.063 L 148.483,44.771 L 148.374,44.631 C 148.332,44.577 148.276,44.511 148.199,44.424 C 148.049,44.26 147.834,44.008 147.552,43.686 C 147.412,43.53 147.258,43.354 147.087,43.167 C 146.927,42.987 146.712,42.763 146.527,42.556 C 146.33,42.342 146.117,42.105 145.887,41.869 C 145.656,41.627 145.418,41.371 145.164,41.117 C 145.036,40.987 144.908,40.856 144.776,40.725 C 144.643,40.586 144.508,40.45 144.361,40.309 C 144.085,40.042 143.794,39.756 143.498,39.462 C 142.891,38.895 142.262,38.287 141.575,37.689 C 140.899,37.08 140.18,36.476 139.45,35.861 C 139.077,35.568 138.707,35.266 138.336,34.959 C 137.947,34.661 137.562,34.373 137.181,34.074 C 135.63,32.91 134.044,31.809 132.51,30.828 C 132.133,30.577 131.742,30.352 131.374,30.126 C 131.005,29.893 130.64,29.67 130.28,29.468 C 129.916,29.253 129.57,29.059 129.231,28.852 C 128.888,28.665 128.553,28.487 128.248,28.311 C 127.606,27.956 127.008,27.657 126.486,27.385 C 125.971,27.112 125.499,26.89 125.121,26.705 C 124.742,26.522 124.443,26.383 124.24,26.281 L 123.833,26.1 Z M 123.881,26.444 L 124.113,26.549 C 124.321,26.646 124.61,26.791 124.995,26.973 C 125.375,27.159 125.833,27.376 126.351,27.653 C 126.878,27.923 127.468,28.219 128.102,28.571 C 128.411,28.75 128.744,28.93 129.086,29.113 C 129.426,29.311 129.771,29.511 130.13,29.717 C 130.487,29.927 130.85,30.143 131.222,30.376 C 131.594,30.6 131.972,30.827 132.355,31.078 C 133.877,32.043 135.461,33.156 137.002,34.311 C 137.384,34.61 137.772,34.89 138.143,35.193 C 138.515,35.499 138.89,35.8 139.263,36.097 C 139.989,36.703 140.709,37.302 141.375,37.913 C 142.058,38.504 142.684,39.11 143.297,39.677 C 143.593,39.962 143.874,40.247 144.156,40.523 C 144.298,40.66 144.43,40.794 144.563,40.928 C 144.692,41.059 144.823,41.195 144.949,41.326 C 145.208,41.586 145.439,41.83 145.671,42.069 C 145.894,42.303 146.112,42.544 146.312,42.753 L 146.867,43.356 C 147.031,43.547 147.193,43.733 147.327,43.888 C 147.607,44.203 147.826,44.454 147.974,44.631 C 148.056,44.717 148.108,44.77 148.135,44.815 L 146.958,45.818 L 146.801,45.631 C 146.655,45.469 146.435,45.22 146.167,44.913 C 146.027,44.757 145.876,44.589 145.711,44.395 C 145.544,44.216 145.362,44.022 145.171,43.813 C 144.976,43.6 144.767,43.366 144.548,43.135 C 144.326,42.906 144.089,42.662 143.838,42.407 C 143.722,42.28 143.589,42.146 143.463,42.012 C 143.329,41.882 143.196,41.755 143.065,41.623 C 142.79,41.351 142.513,41.082 142.217,40.8 C 141.633,40.248 141.012,39.647 140.351,39.068 C 139.692,38.469 138.987,37.886 138.274,37.291 C 137.915,37 137.551,36.705 137.187,36.41 C 136.812,36.119 136.439,35.84 136.066,35.548 C 134.552,34.413 133.01,33.335 131.52,32.386 C 131.15,32.141 130.77,31.921 130.414,31.697 C 130.052,31.477 129.696,31.252 129.341,31.055 C 128.994,30.851 128.65,30.655 128.32,30.464 C 127.994,30.287 127.663,30.099 127.352,29.931 C 126.739,29.587 126.157,29.292 125.654,29.032 C 125.145,28.763 124.684,28.551 124.317,28.371 C 123.943,28.19 123.657,28.055 123.455,27.949 L 123.234,27.854 L 123.824,26.566 L 123.881,26.444 Z M 123.152,28.024 L 123.374,28.119 L 123.74,28.301 C 123.884,28.371 124.05,28.45 124.234,28.54 C 124.607,28.722 125.06,28.932 125.567,29.199 C 126.072,29.459 126.65,29.752 127.261,30.096 C 127.582,30.268 127.891,30.446 128.229,30.629 C 128.557,30.818 128.899,31.014 129.248,31.218 C 129.601,31.415 129.951,31.636 130.315,31.856 C 130.679,32.086 131.047,32.298 131.417,32.543 C 132.905,33.49 134.443,34.566 135.951,35.697 C 136.32,35.987 136.703,36.272 137.07,36.557 C 137.432,36.852 137.796,37.147 138.155,37.436 C 138.868,38.031 139.569,38.612 140.226,39.209 C 140.885,39.786 141.502,40.383 142.088,40.937 C 142.382,41.217 142.659,41.486 142.932,41.756 L 143.329,42.144 L 143.701,42.536 C 143.954,42.793 144.191,43.037 144.413,43.266 C 144.63,43.493 144.835,43.725 145.032,43.94 L 145.571,44.52 C 145.735,44.712 145.888,44.882 146.026,45.038 C 146.294,45.343 146.514,45.594 146.66,45.754 L 146.815,45.941 L 141.109,50.796 L 140.972,50.64 C 140.843,50.485 140.652,50.273 140.408,49.999 C 140.29,49.865 140.159,49.713 140.012,49.544 C 139.859,49.375 139.696,49.2 139.522,49.012 C 139.355,48.829 139.17,48.622 138.973,48.418 C 138.772,48.213 138.564,47.997 138.347,47.769 C 138.226,47.657 138.133,47.55 138.008,47.427 C 137.895,47.311 137.777,47.19 137.653,47.072 C 137.407,46.835 137.164,46.593 136.902,46.336 C 136.381,45.854 135.832,45.317 135.236,44.801 C 134.653,44.275 134.032,43.754 133.402,43.22 C 133.081,42.961 132.746,42.7 132.425,42.443 C 132.1,42.183 131.764,41.93 131.431,41.678 C 130.09,40.669 128.715,39.706 127.391,38.862 C 127.062,38.648 126.722,38.45 126.406,38.253 C 126.086,38.053 125.767,37.853 125.456,37.68 C 125.143,37.495 124.835,37.318 124.542,37.152 C 124.25,36.98 123.959,36.826 123.683,36.676 C 123.132,36.37 122.614,36.109 122.159,35.879 C 121.705,35.633 121.305,35.444 120.968,35.283 C 120.636,35.122 120.383,35.001 120.203,34.917 L 120.015,34.829 L 123.152,28.024 Z" fill="#ffffff" stroke-width="0.5" stroke="none" fill-rule="evenodd" marker-start="none" marker-end="none" stroke-miterlimit="79.8403193612775"/>
    <path d="M 92.878,19.578 C 92.457,19.589 92.126,19.596 91.898,19.599 C 91.675,19.605 91.549,19.613 91.548,19.613 L 91.457,19.619 L 91.46,19.715 L 91.528,21.652 L 91.798,29.323 L 91.891,29.32 C 91.891,29.32 91.999,29.317 92.187,29.314 C 92.389,29.306 92.678,29.302 93.044,29.291 C 93.405,29.28 93.852,29.284 94.363,29.29 C 94.873,29.28 95.449,29.299 96.077,29.316 C 98.58,29.386 101.925,29.687 105.207,30.3 C 106.856,30.608 108.48,30.982 109.999,31.383 C 110.375,31.493 110.749,31.594 111.114,31.695 C 111.471,31.79 111.822,31.908 112.168,32.018 C 112.857,32.216 113.497,32.444 114.092,32.644 C 114.691,32.843 115.222,33.047 115.701,33.224 C 116.181,33.411 116.593,33.571 116.932,33.703 C 117.277,33.829 117.539,33.949 117.721,34.027 C 117.899,34.099 117.996,34.146 117.994,34.145 L 118.084,34.188 L 121.87,25.233 L 121.461,25.059 C 121.251,24.971 120.941,24.838 120.549,24.685 C 120.157,24.529 119.677,24.34 119.124,24.126 C 118.574,23.926 117.95,23.694 117.266,23.461 C 116.578,23.225 115.827,22.97 115.035,22.731 C 114.642,22.611 114.235,22.473 113.806,22.365 C 113.385,22.246 112.96,22.129 112.521,22.002 C 110.765,21.53 108.876,21.103 106.975,20.747 C 103.165,20.037 99.292,19.689 96.388,19.605 C 95.662,19.586 94.998,19.564 94.411,19.569 C 93.824,19.567 93.307,19.564 92.878,19.578 Z M 94.406,19.869 C 94.99,19.861 95.654,19.883 96.38,19.904 C 99.272,19.98 103.117,20.333 106.914,21.036 C 108.811,21.384 110.696,21.822 112.445,22.285 C 112.881,22.41 113.306,22.531 113.727,22.65 C 114.146,22.76 114.544,22.894 114.95,23.014 C 115.743,23.252 116.481,23.512 117.173,23.743 C 117.852,23.976 118.462,24.21 119.024,24.409 C 119.57,24.62 120.047,24.808 120.444,24.961 C 120.834,25.112 121.134,25.241 121.349,25.327 L 121.48,25.388 L 121.578,25.432 L 120.977,26.858 L 120.885,26.82 C 120.846,26.804 120.8,26.786 120.748,26.766 L 120.583,26.692 C 120.396,26.61 120.155,26.508 119.861,26.402 C 119.48,26.249 119.012,26.069 118.475,25.862 C 117.94,25.665 117.333,25.427 116.657,25.203 C 115.997,24.982 115.263,24.731 114.492,24.496 C 114.1,24.38 113.702,24.252 113.296,24.139 C 112.892,24.017 112.458,23.905 112.041,23.783 C 110.327,23.332 108.492,22.911 106.636,22.557 C 102.926,21.869 99.159,21.53 96.328,21.452 C 95.626,21.433 94.977,21.412 94.395,21.416 C 93.826,21.415 93.322,21.412 92.909,21.426 C 92.5,21.43 92.171,21.443 91.953,21.447 C 91.898,21.447 91.849,21.448 91.807,21.45 L 91.709,21.452 L 91.654,19.902 L 91.757,19.901 C 91.801,19.9 91.852,19.898 91.909,19.896 C 92.131,19.887 92.46,19.884 92.883,19.876 C 93.308,19.864 93.819,19.866 94.406,19.869 Z M 94.396,21.605 C 94.974,21.601 95.619,21.62 96.323,21.639 C 99.144,21.717 102.903,22.056 106.601,22.742 C 108.453,23.094 110.284,23.515 111.99,23.964 C 112.419,24.09 112.831,24.196 113.243,24.32 C 113.651,24.433 114.041,24.559 114.437,24.677 C 115.206,24.91 115.936,25.159 116.598,25.382 C 117.27,25.604 117.871,25.84 118.408,26.037 C 118.945,26.244 119.411,26.424 119.794,26.577 C 120.183,26.719 120.474,26.849 120.679,26.94 L 120.904,27.031 L 117.986,33.935 L 117.794,33.854 C 117.618,33.778 117.348,33.654 116.999,33.528 C 116.662,33.396 116.248,33.236 115.768,33.049 C 115.289,32.872 114.754,32.666 114.151,32.465 C 113.56,32.267 112.914,32.037 112.223,31.837 C 111.883,31.731 111.524,31.609 111.163,31.514 C 110.798,31.413 110.426,31.312 110.05,31.202 C 108.523,30.799 106.895,30.425 105.242,30.115 C 101.948,29.5 98.595,29.199 96.082,29.129 C 95.456,29.112 94.874,29.091 94.362,29.101 C 93.855,29.097 93.404,29.091 93.039,29.104 C 92.677,29.113 92.382,29.119 92.182,29.127 L 91.978,29.13 L 91.715,21.64 L 91.956,21.634 C 92.182,21.63 92.501,21.619 92.914,21.613 C 93.323,21.601 93.825,21.602 94.396,21.605 Z" fill="#ffffff" stroke-width="0.5" stroke="none" fill-rule="evenodd" marker-start="none" marker-end="none" stroke-miterlimit="79.8403193612775"/>
    <path d="M 89.306,19.73 L 88.864,19.759 C 88.659,19.777 88.297,19.796 87.882,19.836 C 87.464,19.878 86.95,19.927 86.362,19.986 C 85.78,20.056 85.114,20.122 84.401,20.227 C 82.961,20.42 81.291,20.699 79.514,21.067 C 77.735,21.435 75.855,21.908 73.995,22.449 C 70.273,23.527 66.672,24.966 64.038,26.188 C 62.717,26.793 61.643,27.342 60.889,27.733 C 60.705,27.835 60.536,27.919 60.391,27.996 C 60.243,28.073 60.121,28.141 60.017,28.192 C 59.818,28.302 59.71,28.365 59.71,28.365 L 59.631,28.412 L 64.293,36.928 L 64.374,36.887 C 64.374,36.887 64.468,36.84 64.641,36.749 C 64.732,36.696 64.833,36.639 64.959,36.572 C 65.083,36.507 65.233,36.431 65.389,36.343 C 66.04,36.006 66.971,35.53 68.113,35.005 C 70.39,33.95 73.507,32.705 76.724,31.776 C 78.333,31.303 79.96,30.896 81.491,30.581 C 83.036,30.269 84.472,30.023 85.722,29.86 C 86.342,29.763 86.907,29.707 87.415,29.645 C 87.925,29.593 88.362,29.55 88.733,29.519 C 89.097,29.475 89.379,29.463 89.574,29.45 C 89.77,29.436 89.876,29.434 89.874,29.434 L 89.973,29.433 L 89.447,21.756 L 89.315,19.838 L 89.306,19.73 Z M 89.138,20.036 L 89.244,21.584 L 89.148,21.59 C 89.106,21.592 89.059,21.595 89.003,21.598 C 88.753,21.621 88.481,21.634 88.048,21.674 C 87.635,21.719 87.138,21.766 86.557,21.816 C 85.998,21.892 85.344,21.964 84.653,22.06 C 83.251,22.251 81.62,22.526 79.887,22.88 C 78.157,23.234 76.327,23.696 74.514,24.225 C 70.888,25.27 67.377,26.671 64.816,27.861 C 63.527,28.46 62.479,28.989 61.746,29.373 C 61.56,29.472 61.404,29.547 61.256,29.624 C 61.117,29.704 60.996,29.766 60.897,29.818 L 60.771,29.891 L 60.686,29.937 L 59.943,28.578 L 60.033,28.528 C 60.071,28.508 60.115,28.483 60.165,28.456 C 60.259,28.405 60.385,28.338 60.53,28.256 C 60.662,28.187 60.853,28.092 61.025,28.001 C 61.776,27.607 62.847,27.062 64.162,26.459 C 66.782,25.239 70.374,23.804 74.075,22.739 C 75.93,22.195 77.799,21.727 79.571,21.361 C 81.339,20.999 83.006,20.711 84.436,20.522 C 85.16,20.418 85.81,20.355 86.396,20.276 C 86.978,20.222 87.494,20.177 87.906,20.134 C 88.336,20.084 88.652,20.08 88.889,20.06 C 88.944,20.054 88.993,20.049 89.036,20.045 L 89.138,20.036 Z M 89.257,21.77 L 89.772,29.25 L 89.561,29.263 C 89.37,29.276 89.08,29.288 88.714,29.332 C 88.345,29.363 87.906,29.406 87.394,29.458 C 86.89,29.52 86.317,29.576 85.695,29.673 C 84.443,29.838 83.001,30.084 81.454,30.396 C 79.917,30.713 78.284,31.122 76.671,31.595 C 73.444,32.528 70.319,33.777 68.034,34.834 C 66.888,35.361 65.955,35.839 65.3,36.178 C 65.144,36.266 65,36.338 64.872,36.405 C 64.742,36.474 64.639,36.533 64.55,36.584 L 64.37,36.678 L 60.771,30.102 L 60.862,30.054 L 60.988,29.981 C 61.081,29.933 61.208,29.869 61.347,29.789 C 61.479,29.72 61.653,29.635 61.833,29.54 C 62.564,29.156 63.61,28.629 64.895,28.032 C 67.448,26.844 70.951,25.447 74.567,24.406 C 76.376,23.877 78.2,23.417 79.924,23.065 C 81.653,22.711 83.28,22.436 84.678,22.247 C 85.381,22.149 86.005,22.081 86.58,22.002 L 86.995,21.966 C 87.399,21.929 87.757,21.894 88.067,21.861 C 88.438,21.827 88.82,21.804 89.018,21.784 L 89.159,21.777 L 89.257,21.77 Z" fill="#ffffff" stroke-width="0.5" stroke="none" fill-rule="evenodd" marker-start="none" marker-end="none" stroke-miterlimit="79.8403193612775"/>
    <path d="M 28.255,57.91 L 28.212,57.992 C 28.212,57.993 28.155,58.1 28.057,58.309 C 27.959,58.51 27.811,58.812 27.629,59.191 C 27.533,59.383 27.43,59.601 27.318,59.827 C 27.213,60.065 27.105,60.317 26.977,60.584 C 26.856,60.854 26.724,61.143 26.587,61.44 C 26.454,61.747 26.321,62.077 26.181,62.406 C 25.607,63.747 24.998,65.341 24.394,67.06 C 23.796,68.783 23.238,70.65 22.745,72.53 C 21.747,76.298 21.123,80.159 20.815,83.057 C 20.661,84.517 20.578,85.725 20.519,86.574 C 20.48,87.425 20.452,87.909 20.452,87.909 L 20.446,88.004 L 23.629,88.139 L 23.633,88.046 C 23.633,88.046 23.656,87.576 23.696,86.764 C 23.744,85.949 23.831,84.795 23.979,83.404 C 24.276,80.623 24.879,76.938 25.822,73.336 C 26.297,71.531 26.826,69.745 27.406,68.1 C 27.978,66.446 28.559,64.924 29.112,63.644 C 29.248,63.325 29.378,63.017 29.506,62.724 C 29.631,62.436 29.758,62.16 29.878,61.901 C 29.991,61.643 30.104,61.399 30.206,61.181 C 30.309,60.968 30.412,60.742 30.496,60.566 C 30.675,60.201 30.811,59.918 30.909,59.718 C 31.002,59.521 31.055,59.421 31.054,59.423 L 31.1,59.338 L 28.255,57.91 Z M 28.336,58.161 L 30.844,59.42 L 30.802,59.505 C 30.784,59.543 30.763,59.587 30.74,59.637 C 30.644,59.833 30.504,60.122 30.327,60.485 C 30.229,60.689 30.15,60.863 30.037,61.1 C 29.933,61.32 29.82,61.566 29.707,61.824 C 29.587,62.081 29.46,62.359 29.333,62.649 C 29.205,62.942 29.075,63.252 28.939,63.569 C 28.384,64.855 27.801,66.381 27.229,68.039 C 26.647,69.688 26.116,71.48 25.641,73.289 C 24.694,76.901 24.089,80.596 23.792,83.385 C 23.644,84.778 23.557,85.936 23.509,86.753 C 23.484,87.261 23.465,87.636 23.455,87.845 L 23.45,87.944 L 20.644,87.825 L 20.649,87.721 C 20.661,87.504 20.681,87.115 20.706,86.585 C 20.765,85.738 20.848,84.534 21.002,83.076 C 21.31,80.186 21.932,76.335 22.926,72.577 C 23.419,70.701 23.975,68.84 24.571,67.123 C 25.175,65.406 25.782,63.816 26.354,62.479 C 26.498,62.142 26.625,61.824 26.758,61.517 C 26.895,61.222 27.027,60.931 27.148,60.663 C 27.276,60.394 27.386,60.14 27.489,59.906 C 27.601,59.678 27.7,59.468 27.798,59.274 C 27.98,58.893 28.128,58.595 28.226,58.39 C 28.25,58.338 28.272,58.292 28.291,58.253 L 28.336,58.161 Z" fill="#ffffff" stroke-width="0.5" stroke="none" fill-rule="evenodd" marker-start="none" marker-end="none" stroke-miterlimit="79.8403193612775"/>
    <path d="M 33.402,49.194 L 33.35,49.276 C 33.351,49.275 33.271,49.4 33.111,49.635 C 33.029,49.754 32.944,49.881 32.833,50.04 C 32.724,50.21 32.605,50.386 32.474,50.587 C 31.948,51.386 31.278,52.458 30.635,53.549 C 29.99,54.635 29.382,55.749 28.935,56.589 C 28.498,57.429 28.212,57.993 28.212,57.993 L 28.169,58.077 L 31.013,59.504 L 31.055,59.421 C 31.055,59.421 31.33,58.882 31.749,58.073 C 32.178,57.271 32.757,56.209 33.375,55.164 C 33.99,54.121 34.637,53.096 35.136,52.333 C 35.2,52.237 35.261,52.145 35.317,52.058 L 35.47,51.812 L 35.62,51.598 C 35.665,51.532 35.706,51.474 35.75,51.415 C 35.893,51.197 35.976,51.068 35.977,51.067 L 36.026,50.991 L 33.402,49.194 Z M 33.453,49.461 L 35.764,51.049 C 35.74,51.086 35.716,51.122 35.689,51.165 L 35.597,51.306 C 35.515,51.416 35.422,51.557 35.312,51.711 C 35.219,51.865 35.108,52.038 34.979,52.228 C 34.478,52.995 33.829,54.022 33.214,55.069 C 32.594,56.116 32.013,57.182 31.582,57.986 C 31.267,58.594 31.034,59.049 30.934,59.245 L 28.426,57.985 C 28.531,57.779 28.774,57.306 29.102,56.676 C 29.547,55.838 30.153,54.728 30.796,53.644 C 31.439,52.555 32.107,51.487 32.631,50.69 C 32.76,50.493 32.883,50.311 32.99,50.145 C 33.089,50.002 33.194,49.845 33.266,49.742 C 33.347,49.623 33.407,49.532 33.453,49.461 Z" fill="#ffffff" stroke-width="0.5" stroke="none" fill-rule="evenodd" marker-start="none" marker-end="none" stroke-miterlimit="79.8403193612775"/>
    <path d="M 20.452,87.816 L 20.452,87.915 C 20.452,87.911 20.452,87.948 20.444,88.024 C 20.442,88.097 20.436,88.211 20.435,88.354 C 20.429,88.635 20.415,89.064 20.406,89.596 C 20.385,90.135 20.395,90.793 20.392,91.535 C 20.39,91.91 20.408,92.311 20.415,92.729 C 20.426,93.146 20.431,93.586 20.459,94.05 C 20.528,95.888 20.693,98.032 20.991,100.31 C 21.286,102.594 21.704,105.013 22.25,107.404 C 22.797,109.796 23.471,112.159 24.2,114.336 C 24.927,116.521 25.715,118.517 26.449,120.204 C 26.802,121.052 27.174,121.819 27.475,122.494 C 27.805,123.168 28.086,123.751 28.33,124.238 C 28.822,125.187 29.104,125.733 29.104,125.733 L 29.148,125.817 L 31.953,124.316 L 31.911,124.234 C 31.911,124.233 31.643,123.711 31.169,122.803 C 30.937,122.341 30.668,121.78 30.354,121.138 C 30.056,120.485 29.709,119.758 29.373,118.946 C 28.673,117.331 27.918,115.414 27.217,113.33 C 26.52,111.241 25.876,108.982 25.356,106.692 C 24.831,104.403 24.425,102.089 24.15,99.903 C 23.862,97.722 23.706,95.673 23.635,93.914 C 23.613,93.475 23.599,93.051 23.597,92.651 C 23.585,92.244 23.571,91.867 23.573,91.513 C 23.577,90.791 23.571,90.174 23.583,89.659 C 23.596,89.147 23.609,88.743 23.613,88.466 C 23.62,88.322 23.619,88.225 23.627,88.155 L 23.632,88.056 L 23.649,87.952 L 20.452,87.816 Z M 20.632,88.015 L 23.44,88.139 C 23.432,88.212 23.431,88.329 23.426,88.461 C 23.422,88.738 23.409,89.14 23.396,89.654 C 23.382,90.171 23.388,90.794 23.386,91.512 C 23.382,91.87 23.398,92.253 23.41,92.654 C 23.412,93.056 23.426,93.482 23.448,93.923 C 23.519,95.686 23.675,97.741 23.963,99.928 C 24.24,102.118 24.646,104.438 25.173,106.733 C 25.695,109.031 26.339,111.296 27.038,113.389 C 27.741,115.479 28.498,117.402 29.2,119.019 C 29.538,119.835 29.887,120.566 30.185,121.219 C 30.499,121.861 30.768,122.424 31.002,122.888 C 31.357,123.57 31.597,124.034 31.7,124.234 L 29.223,125.553 C 29.116,125.347 28.866,124.863 28.497,124.153 C 28.255,123.668 27.974,123.087 27.646,122.415 C 27.343,121.734 26.975,120.977 26.622,120.131 C 25.89,118.446 25.104,116.456 24.379,114.277 C 23.652,112.104 22.978,109.747 22.433,107.363 C 21.889,104.978 21.471,102.565 21.178,100.285 C 20.88,98.013 20.715,95.875 20.646,94.041 C 20.618,93.579 20.615,93.145 20.602,92.724 C 20.595,92.3 20.579,91.909 20.579,91.536 C 20.584,90.788 20.574,90.138 20.593,89.601 C 20.602,89.067 20.616,88.644 20.622,88.357 C 20.622,88.285 20.624,88.223 20.626,88.17 L 20.632,88.015 Z" fill="#ffffff" stroke-width="0.5" stroke="none" fill-rule="evenodd" marker-start="none" marker-end="none" stroke-miterlimit="79.8403193612775"/>
    <path d="M 31.865,124.15 L 29.059,125.652 L 29.105,125.735 C 29.105,125.735 29.245,125.985 29.483,126.429 C 29.61,126.652 29.753,126.914 29.922,127.225 C 30.098,127.531 30.298,127.872 30.514,128.243 C 31.382,129.738 32.611,131.693 33.95,133.575 C 35.274,135.462 36.702,137.275 37.827,138.592 C 38.104,138.923 38.366,139.218 38.601,139.485 C 38.831,139.747 39.031,139.976 39.194,140.168 C 39.369,140.358 39.499,140.5 39.597,140.603 C 39.688,140.703 39.736,140.751 39.736,140.752 L 39.8,140.817 L 42.142,138.674 L 42.081,138.604 C 42.081,138.604 42.036,138.553 41.944,138.455 C 41.857,138.36 41.728,138.223 41.57,138.043 C 41.412,137.861 41.219,137.64 40.997,137.387 C 40.778,137.134 40.523,136.852 40.258,136.532 C 39.184,135.28 37.818,133.539 36.542,131.735 C 35.268,129.934 34.095,128.066 33.257,126.639 C 33.053,126.282 32.863,125.952 32.695,125.66 C 32.534,125.366 32.394,125.11 32.274,124.9 C 32.044,124.477 31.91,124.231 31.91,124.231 L 31.865,124.15 Z M 32.109,124.991 C 32.229,125.201 32.369,125.455 32.532,125.753 C 32.7,126.045 32.89,126.375 33.094,126.734 C 33.936,128.165 35.111,130.037 36.389,131.844 C 37.667,133.652 39.037,135.397 40.115,136.653 C 40.38,136.975 40.639,137.261 40.856,137.51 C 41.078,137.763 41.269,137.984 41.429,138.166 C 41.589,138.35 41.72,138.489 41.807,138.582 L 41.878,138.66 L 39.808,140.554 L 39.734,140.474 C 39.636,140.371 39.508,140.231 39.335,140.043 C 39.174,139.853 38.972,139.622 38.742,139.36 C 38.507,139.093 38.247,138.8 37.97,138.471 C 36.849,137.158 35.425,135.349 34.103,133.466 C 32.768,131.59 31.543,129.639 30.677,128.148 C 30.461,127.777 30.261,127.436 30.087,127.134 C 29.918,126.825 29.775,126.561 29.648,126.338 C 29.529,126.117 29.434,125.943 29.369,125.825 L 29.315,125.727 L 31.789,124.403 L 31.84,124.497 C 31.903,124.611 31.994,124.778 32.109,124.991 Z" fill="#ffffff" stroke-width="0.5" stroke="none" fill-rule="evenodd" marker-start="none" marker-end="none" stroke-miterlimit="79.8403193612775"/>
    <path d="M 25.137,88.014 L 25.133,88.107 C 25.133,88.107 25.123,88.322 25.111,88.693 C 25.109,89.05 25.087,89.618 25.086,90.242 C 25.067,91.52 25.093,93.232 25.195,94.936 C 25.297,96.637 25.46,98.343 25.626,99.609 C 25.659,99.932 25.707,100.223 25.742,100.475 C 25.779,100.736 25.812,100.957 25.835,101.142 C 25.862,101.325 25.883,101.471 25.899,101.574 C 25.917,101.672 25.926,101.725 25.926,101.725 L 25.941,101.817 L 29.084,101.318 L 29.069,101.225 C 29.069,101.224 29.061,101.173 29.044,101.076 C 29.027,100.986 29.01,100.852 28.988,100.673 C 28.958,100.492 28.932,100.288 28.892,100.036 C 28.858,99.793 28.817,99.513 28.782,99.21 C 28.627,97.997 28.469,96.377 28.366,94.753 C 28.279,93.123 28.253,91.492 28.262,90.274 C 28.271,89.662 28.287,89.154 28.297,88.801 C 28.302,88.442 28.315,88.241 28.315,88.243 L 28.321,88.147 L 25.137,88.014 Z M 25.315,88.208 L 28.123,88.326 L 28.12,88.378 C 28.117,88.475 28.112,88.616 28.11,88.798 C 28.1,89.149 28.084,89.657 28.075,90.271 C 28.064,91.495 28.092,93.128 28.179,94.764 C 28.282,96.392 28.44,98.016 28.595,99.233 C 28.63,99.538 28.673,99.822 28.707,100.063 C 28.735,100.243 28.758,100.414 28.78,100.562 L 28.802,100.699 C 28.823,100.871 28.84,101.013 28.859,101.111 L 28.868,101.161 L 26.094,101.602 L 26.084,101.543 C 26.068,101.442 26.049,101.3 26.022,101.117 C 25.999,100.932 25.964,100.707 25.929,100.448 C 25.892,100.192 25.846,99.907 25.813,99.588 C 25.647,98.324 25.484,96.622 25.382,94.925 C 25.28,93.225 25.256,91.519 25.273,90.243 C 25.276,89.587 25.296,89.091 25.298,88.696 C 25.304,88.512 25.309,88.367 25.313,88.268 L 25.315,88.208 Z" fill="#ffffff" stroke-width="0.5" stroke="none" fill-rule="evenodd" marker-start="none" marker-end="none" stroke-miterlimit="79.8403193612775"/>
    <path d="M 37.269,51.844 L 37.217,51.924 C 37.217,51.924 37.134,52.052 36.975,52.28 C 36.814,52.512 36.588,52.862 36.303,53.304 C 36.154,53.526 35.991,53.771 35.818,54.038 C 35.654,54.31 35.474,54.601 35.285,54.919 C 34.888,55.531 34.479,56.26 34.024,57.043 C 33.142,58.623 32.162,60.5 31.226,62.561 C 30.295,64.623 29.401,66.87 28.634,69.161 C 27.868,71.453 27.221,73.785 26.727,75.994 C 26.233,78.204 25.887,80.294 25.655,82.092 C 25.411,83.886 25.299,85.392 25.226,86.447 C 25.186,86.973 25.175,87.402 25.158,87.671 C 25.146,87.953 25.133,88.105 25.133,88.104 L 25.125,88.201 L 28.311,88.334 L 28.315,88.241 C 28.315,88.241 28.322,88.094 28.333,87.827 C 28.353,87.53 28.363,87.185 28.398,86.663 C 28.473,85.653 28.575,84.212 28.806,82.501 C 29.03,80.791 29.365,78.797 29.834,76.69 C 30.304,74.582 30.913,72.356 31.651,70.17 C 32.383,67.985 33.232,65.843 34.128,63.875 C 35.019,61.907 35.952,60.115 36.795,58.609 C 37.231,57.862 37.617,57.175 37.996,56.582 C 38.179,56.278 38.35,55.999 38.511,55.74 C 38.686,55.467 38.818,55.272 38.965,55.043 C 39.239,54.616 39.454,54.285 39.61,54.066 C 39.763,53.84 39.846,53.724 39.846,53.724 L 39.902,53.646 L 37.269,51.844 Z M 37.318,52.11 L 39.634,53.697 C 39.591,53.76 39.531,53.846 39.455,53.959 C 39.297,54.18 39.08,54.515 38.806,54.942 C 38.679,55.139 38.511,55.392 38.352,55.639 C 38.189,55.9 38.018,56.181 37.837,56.483 C 37.456,57.078 37.066,57.771 36.632,58.516 C 35.785,60.026 34.85,61.824 33.957,63.798 C 33.059,65.77 32.206,67.92 31.472,70.111 C 30.732,72.303 30.121,74.535 29.651,76.649 C 29.18,78.762 28.845,80.762 28.619,82.476 C 28.388,84.193 28.286,85.64 28.211,86.65 C 28.178,87.126 28.162,87.573 28.146,87.816 C 28.14,87.95 28.136,88.054 28.132,88.132 L 25.327,88.013 C 25.332,87.932 25.339,87.823 25.345,87.682 C 25.364,87.397 25.373,86.992 25.413,86.46 C 25.486,85.407 25.598,83.905 25.842,82.117 C 26.072,80.323 26.418,78.239 26.91,76.035 C 27.404,73.832 28.049,71.506 28.813,69.22 C 29.578,66.937 30.468,64.694 31.397,62.638 C 32.331,60.583 33.309,58.712 34.187,57.136 C 34.644,56.351 35.049,55.628 35.444,55.018 C 35.635,54.698 35.813,54.409 35.977,54.137 C 36.148,53.874 36.311,53.631 36.46,53.407 C 36.747,52.963 36.971,52.615 37.13,52.387 C 37.209,52.272 37.27,52.182 37.318,52.11 Z" fill="#ffffff" stroke-width="0.5" stroke="none" fill-rule="evenodd" marker-start="none" marker-end="none" stroke-miterlimit="79.8403193612775"/>
    <path d="M 29.092,101.139 L 25.952,101.61 L 25.963,101.702 C 25.963,101.703 25.989,101.898 26.049,102.239 C 26.079,102.409 26.116,102.617 26.15,102.85 C 26.172,102.976 26.197,103.101 26.216,103.227 C 26.24,103.363 26.262,103.504 26.293,103.651 C 26.403,104.23 26.526,104.914 26.692,105.64 C 26.773,105.988 26.84,106.376 26.94,106.751 C 27.028,107.123 27.12,107.51 27.211,107.895 C 27.603,109.428 28.03,110.951 28.4,112.075 C 28.492,112.358 28.573,112.617 28.645,112.85 C 28.721,113.073 28.787,113.273 28.847,113.438 C 28.961,113.761 29.023,113.946 29.022,113.945 L 29.052,114.035 L 32.062,113.004 L 32.033,112.916 C 32.032,112.915 31.974,112.738 31.861,112.429 C 31.808,112.275 31.747,112.085 31.675,111.868 C 31.601,111.645 31.526,111.403 31.437,111.129 C 31.083,110.053 30.68,108.604 30.304,107.143 C 30.131,106.407 29.947,105.676 29.807,104.987 C 29.648,104.294 29.535,103.651 29.431,103.089 C 29.402,102.95 29.375,102.816 29.351,102.696 C 29.33,102.569 29.312,102.45 29.292,102.332 C 29.252,102.104 29.22,101.908 29.191,101.746 C 29.142,101.421 29.108,101.23 29.108,101.229 L 29.092,101.139 Z M 29.006,101.777 C 29.033,101.933 29.067,102.141 29.107,102.363 C 29.125,102.477 29.145,102.602 29.166,102.729 C 29.19,102.853 29.217,102.987 29.246,103.126 C 29.35,103.682 29.463,104.331 29.624,105.026 C 29.764,105.717 29.948,106.454 30.121,107.188 C 30.499,108.653 30.902,110.106 31.258,111.188 C 31.345,111.452 31.424,111.708 31.496,111.927 C 31.568,112.14 31.631,112.336 31.684,112.492 C 31.74,112.646 31.783,112.767 31.811,112.849 L 31.824,112.887 L 29.17,113.796 L 29.154,113.752 C 29.125,113.665 29.081,113.537 29.024,113.375 C 28.964,113.212 28.9,113.016 28.824,112.791 C 28.752,112.56 28.671,112.301 28.579,112.016 C 28.211,110.898 27.784,109.379 27.394,107.85 C 27.303,107.467 27.211,107.08 27.123,106.706 C 27.021,106.329 26.96,105.963 26.875,105.597 C 26.711,104.877 26.588,104.197 26.478,103.614 C 26.447,103.469 26.427,103.336 26.401,103.196 C 26.382,103.07 26.357,102.939 26.335,102.819 C 26.301,102.586 26.264,102.376 26.234,102.206 C 26.204,102.037 26.183,101.905 26.169,101.814 L 26.162,101.768 L 28.938,101.351 L 28.946,101.396 C 28.96,101.484 28.981,101.613 29.006,101.777 Z" fill="#ffffff" stroke-width="0.5" stroke="none" fill-rule="evenodd" marker-start="none" marker-end="none" stroke-miterlimit="79.8403193612775"/>
    <path d="M 32.008,112.825 L 29.007,113.892 L 29.038,113.981 C 29.038,113.981 29.08,114.1 29.161,114.323 C 29.232,114.547 29.365,114.877 29.512,115.289 C 29.592,115.499 29.679,115.727 29.775,115.979 C 29.868,116.227 29.98,116.496 30.098,116.78 C 30.213,117.067 30.331,117.379 30.463,117.695 C 30.605,118.02 30.75,118.35 30.903,118.697 C 31.518,120.093 32.267,121.702 33.167,123.388 C 34.061,125.061 35.086,126.816 36.191,128.519 C 37.288,130.228 38.469,131.878 39.642,133.383 C 40.807,134.888 41.966,136.234 42.988,137.369 C 43.504,137.925 43.974,138.442 44.412,138.884 C 44.625,139.104 44.826,139.312 45.011,139.507 C 45.196,139.695 45.381,139.87 45.537,140.022 C 45.849,140.332 46.099,140.579 46.269,140.747 C 46.448,140.91 46.535,140.997 46.534,140.996 L 46.602,141.064 L 48.801,138.754 L 48.73,138.689 C 48.73,138.69 48.636,138.603 48.474,138.448 C 48.311,138.288 48.075,138.056 47.772,137.761 C 47.615,137.603 47.454,137.453 47.272,137.267 C 47.096,137.083 46.906,136.887 46.696,136.67 C 46.282,136.255 45.839,135.76 45.344,135.228 C 44.369,134.147 43.268,132.87 42.152,131.43 C 41.037,129.998 39.911,128.419 38.857,126.79 C 37.807,125.166 36.824,123.494 35.979,121.889 C 35.12,120.285 34.404,118.752 33.815,117.418 C 33.672,117.089 33.534,116.766 33.402,116.461 C 33.273,116.159 33.165,115.868 33.053,115.591 C 32.941,115.316 32.834,115.063 32.74,114.822 C 32.645,114.574 32.58,114.387 32.496,114.169 C 32.342,113.767 32.224,113.463 32.151,113.249 C 32.075,113.032 32.038,112.916 32.038,112.916 L 32.008,112.825 Z M 31.974,113.31 C 32.047,113.528 32.167,113.836 32.321,114.236 C 32.391,114.42 32.48,114.669 32.565,114.889 C 32.659,115.132 32.768,115.391 32.878,115.662 C 32.988,115.931 33.1,116.232 33.229,116.536 C 33.363,116.843 33.499,117.162 33.642,117.493 C 34.233,118.831 34.951,120.368 35.812,121.978 C 36.661,123.587 37.646,125.263 38.7,126.893 C 39.756,128.526 40.886,130.109 42.003,131.545 C 43.123,132.989 44.228,134.27 45.205,135.355 C 45.698,135.885 46.145,136.384 46.561,136.801 C 46.771,137.018 46.961,137.214 47.137,137.398 C 47.315,137.58 47.494,137.748 47.639,137.894 C 47.944,138.191 48.18,138.423 48.343,138.583 L 48.532,138.762 L 46.597,140.795 L 46.398,140.61 C 46.232,140.446 45.982,140.199 45.668,139.889 C 45.51,139.733 45.329,139.562 45.146,139.376 C 44.961,139.181 44.76,138.973 44.547,138.753 C 44.111,138.313 43.643,137.8 43.127,137.242 C 42.107,136.111 40.952,134.769 39.791,133.268 C 38.62,131.767 37.443,130.121 36.348,128.418 C 35.247,126.719 34.224,124.968 33.332,123.299 C 32.436,121.619 31.689,120.014 31.076,118.622 C 30.923,118.275 30.778,117.945 30.636,117.622 C 30.506,117.308 30.39,117.002 30.273,116.709 C 30.153,116.423 30.043,116.158 29.95,115.912 C 29.854,115.66 29.767,115.432 29.689,115.224 C 29.538,114.802 29.411,114.488 29.338,114.262 L 29.246,114.006 L 31.889,113.066 L 31.974,113.31 Z" fill="#ffffff" stroke-width="0.5" stroke="none" fill-rule="evenodd" marker-start="none" marker-end="none" stroke-miterlimit="79.8403193612775"/>
    <path d="M 38.756,58.227 L 38.709,58.308 C 38.708,58.308 38.636,58.431 38.511,58.654 C 38.386,58.87 38.197,59.178 37.987,59.559 C 37.779,59.938 37.535,60.383 37.275,60.859 C 37.027,61.341 36.77,61.856 36.5,62.367 C 36.256,62.889 36.002,63.408 35.763,63.901 C 35.541,64.396 35.34,64.854 35.159,65.246 C 34.82,66.042 34.591,66.578 34.591,66.578 L 34.554,66.665 L 37.502,67.876 L 37.538,67.79 C 37.538,67.79 37.752,67.287 38.072,66.526 C 38.242,66.152 38.445,65.713 38.655,65.24 C 38.872,64.782 39.123,64.28 39.353,63.79 C 39.607,63.296 39.854,62.808 40.089,62.347 C 40.334,61.902 40.568,61.474 40.765,61.111 C 40.977,60.741 41.135,60.471 41.261,60.251 C 41.384,60.04 41.451,59.922 41.451,59.922 L 41.497,59.842 L 38.756,58.227 Z M 38.822,58.485 L 41.24,59.911 C 41.207,59.968 41.159,60.05 41.098,60.156 C 40.988,60.348 40.798,60.674 40.6,61.02 C 40.403,61.383 40.169,61.811 39.922,62.258 C 39.685,62.723 39.44,63.211 39.184,63.707 C 38.95,64.205 38.707,64.691 38.484,65.161 C 38.274,65.636 38.071,66.073 37.899,66.451 C 37.659,67.023 37.478,67.449 37.402,67.629 L 34.803,66.559 C 34.885,66.367 35.077,65.917 35.33,65.323 C 35.511,64.931 35.714,64.471 35.934,63.98 C 36.052,63.735 36.175,63.483 36.299,63.226 L 36.67,62.448 L 37.063,61.687 C 37.192,61.434 37.319,61.186 37.442,60.948 C 37.7,60.474 37.944,60.029 38.152,59.65 C 38.36,59.271 38.545,58.969 38.674,58.747 C 38.736,58.635 38.785,58.549 38.822,58.485 Z" fill="#ffffff" stroke-width="0.5" stroke="none" fill-rule="evenodd" marker-start="none" marker-end="none" stroke-miterlimit="79.8403193612775"/>
    <path d="M 41.144,54.496 L 41.09,54.573 C 41.09,54.573 40.933,54.799 40.695,55.142 C 40.466,55.492 40.164,55.952 39.864,56.419 C 39.567,56.889 39.281,57.366 39.061,57.718 C 38.955,57.896 38.867,58.034 38.799,58.145 C 38.743,58.25 38.708,58.308 38.709,58.307 L 38.66,58.388 L 41.401,60.003 L 41.45,59.925 C 41.45,59.924 41.483,59.871 41.544,59.762 C 41.596,59.667 41.682,59.53 41.788,59.358 C 42.003,59.018 42.262,58.578 42.547,58.131 C 42.839,57.688 43.119,57.243 43.34,56.915 C 43.561,56.593 43.713,56.373 43.713,56.373 L 43.766,56.295 L 41.144,54.496 Z M 41.19,54.758 L 43.501,56.348 C 43.434,56.445 43.323,56.607 43.185,56.81 C 42.964,57.138 42.678,57.591 42.39,58.028 C 42.109,58.469 41.834,58.933 41.629,59.259 C 41.523,59.429 41.435,59.57 41.379,59.671 L 41.337,59.743 L 38.921,58.314 L 38.961,58.238 C 39.022,58.139 39.118,57.989 39.222,57.815 C 39.444,57.459 39.724,56.99 40.023,56.52 C 40.321,56.055 40.623,55.595 40.85,55.247 C 40.998,55.033 41.115,54.865 41.19,54.758 Z" fill="#ffffff" stroke-width="0.5" stroke="none" fill-rule="evenodd" marker-start="none" marker-end="none" stroke-miterlimit="79.8403193612775"/>
    <path d="M 34.628,66.493 L 34.591,66.577 C 34.591,66.578 34.503,66.778 34.357,67.166 C 34.281,67.359 34.188,67.597 34.076,67.875 C 34.022,68.019 33.963,68.167 33.892,68.331 C 33.841,68.492 33.778,68.662 33.709,68.844 C 33.17,70.293 32.454,72.392 31.794,74.96 C 31.714,75.285 31.634,75.617 31.551,75.949 C 31.466,76.284 31.39,76.63 31.314,76.977 C 31.14,77.669 31.011,78.4 30.859,79.141 C 30.59,80.636 30.342,82.223 30.155,83.871 C 29.799,87.17 29.651,90.715 29.852,94.248 C 29.946,96.016 30.108,97.781 30.338,99.507 C 30.563,101.233 30.874,102.921 31.223,104.541 C 31.393,105.358 31.587,106.148 31.78,106.923 C 31.989,107.695 32.184,108.454 32.409,109.179 C 32.615,109.912 32.852,110.612 33.07,111.297 C 33.19,111.633 33.3,111.964 33.409,112.293 C 33.458,112.436 33.532,112.629 33.582,112.777 C 33.644,112.937 33.7,113.089 33.75,113.249 C 34.675,115.739 35.596,117.757 36.27,119.149 C 36.441,119.492 36.592,119.811 36.725,120.074 C 36.865,120.342 36.984,120.567 37.082,120.751 C 37.174,120.938 37.247,121.079 37.296,121.172 C 37.342,121.266 37.373,121.319 37.374,121.321 L 37.42,121.399 L 40.228,119.902 L 40.182,119.818 C 40.182,119.819 40.156,119.772 40.111,119.681 C 40.061,119.591 39.988,119.458 39.902,119.281 C 39.808,119.105 39.697,118.89 39.566,118.636 C 39.433,118.377 39.301,118.091 39.133,117.753 C 38.492,116.429 37.619,114.513 36.744,112.145 C 36.685,111.999 36.629,111.847 36.574,111.699 C 36.52,111.546 36.468,111.395 36.415,111.238 C 36.308,110.93 36.197,110.608 36.085,110.287 C 35.883,109.637 35.656,108.974 35.462,108.279 C 35.249,107.585 35.063,106.867 34.864,106.132 C 34.686,105.393 34.49,104.645 34.339,103.869 C 34.002,102.33 33.711,100.725 33.489,99.081 C 33.276,97.441 33.119,95.768 33.029,94.085 C 32.843,90.727 32.98,87.355 33.319,84.222 C 33.495,82.659 33.729,81.156 33.984,79.73 C 34.135,79.019 34.258,78.334 34.414,77.676 C 34.494,77.34 34.565,77.018 34.642,76.7 C 34.723,76.38 34.807,76.068 34.879,75.76 C 35.51,73.32 36.188,71.327 36.7,69.948 L 36.872,69.46 C 36.937,69.301 36.993,69.156 37.044,69.029 C 37.165,68.731 37.225,68.56 37.309,68.355 C 37.452,67.98 37.538,67.791 37.537,67.792 L 37.578,67.704 L 34.628,66.493 Z M 34.728,66.736 L 37.327,67.803 L 37.303,67.859 C 37.263,67.955 37.205,68.097 37.134,68.286 C 37.072,68.437 36.966,68.722 36.869,68.958 C 36.818,69.089 36.762,69.232 36.696,69.394 C 36.647,69.545 36.587,69.707 36.523,69.883 C 36.011,71.266 35.329,73.265 34.696,75.715 C 34.624,76.023 34.542,76.331 34.459,76.655 C 34.384,76.967 34.309,77.307 34.231,77.633 C 34.075,78.293 33.95,78.99 33.799,79.693 C 33.544,81.125 33.308,82.632 33.132,84.201 C 32.793,87.344 32.654,90.726 32.842,94.096 C 32.932,95.783 33.089,97.46 33.302,99.106 C 33.526,100.756 33.817,102.365 34.154,103.908 C 34.307,104.686 34.505,105.442 34.681,106.179 C 34.88,106.914 35.068,107.636 35.281,108.332 C 35.475,109.027 35.706,109.7 35.906,110.346 C 36.02,110.669 36.131,110.991 36.238,111.299 C 36.291,111.456 36.343,111.607 36.397,111.762 C 36.452,111.912 36.51,112.066 36.569,112.212 C 37.446,114.586 38.321,116.508 38.964,117.836 C 39.128,118.166 39.266,118.464 39.399,118.723 C 39.53,118.975 39.641,119.192 39.735,119.366 C 39.778,119.455 39.818,119.534 39.854,119.602 L 39.945,119.767 L 39.973,119.824 L 37.494,121.146 L 37.463,121.087 C 37.414,120.992 37.341,120.853 37.249,120.666 C 37.151,120.48 37.032,120.255 36.892,119.989 C 36.759,119.724 36.612,119.415 36.439,119.066 C 35.767,117.678 34.848,115.666 33.927,113.185 L 33.759,112.712 C 33.697,112.532 33.647,112.406 33.588,112.232 C 33.479,111.905 33.367,111.572 33.249,111.236 C 33.029,110.551 32.794,109.857 32.59,109.126 C 32.365,108.403 32.172,107.65 31.961,106.876 C 31.77,106.103 31.576,105.315 31.406,104.502 C 31.059,102.886 30.748,101.202 30.525,99.482 C 30.295,97.762 30.133,96.001 30.039,94.237 C 29.84,90.716 29.986,87.181 30.342,83.892 C 30.529,82.25 30.775,80.667 31.044,79.176 C 31.196,78.431 31.323,77.71 31.497,77.02 C 31.573,76.669 31.649,76.327 31.734,75.994 C 31.817,75.662 31.897,75.328 31.977,75.005 C 32.635,72.447 33.347,70.354 33.884,68.911 L 34.069,68.395 L 34.251,67.944 C 34.363,67.666 34.456,67.428 34.532,67.233 C 34.605,67.04 34.663,66.894 34.702,66.797 L 34.728,66.736 Z" fill="#ffffff" stroke-width="0.5" stroke="none" fill-rule="evenodd" marker-start="none" marker-end="none" stroke-miterlimit="79.8403193612775"/>
    <path d="M 40.138,119.736 L 37.327,121.236 L 37.374,121.32 C 37.373,121.319 37.483,121.515 37.67,121.856 C 37.857,122.197 38.117,122.685 38.462,123.265 C 38.628,123.543 38.799,123.865 39.006,124.188 C 39.201,124.511 39.416,124.859 39.632,125.213 C 40.08,125.916 40.561,126.668 41.069,127.399 C 42.073,128.865 43.145,130.286 43.985,131.325 C 44.19,131.586 44.385,131.819 44.561,132.026 C 44.735,132.234 44.884,132.417 45.008,132.564 C 45.258,132.866 45.409,133.034 45.41,133.034 L 45.471,133.103 L 47.875,131.023 L 47.814,130.952 C 47.814,130.953 47.674,130.789 47.44,130.509 C 47.323,130.37 47.177,130.192 47.013,130 C 46.845,129.799 46.661,129.58 46.467,129.328 C 45.667,128.346 44.649,126.99 43.693,125.596 C 43.21,124.903 42.756,124.188 42.332,123.522 C 42.124,123.183 41.922,122.86 41.731,122.547 C 41.54,122.237 41.376,121.94 41.21,121.662 C 40.89,121.119 40.638,120.656 40.462,120.33 C 40.281,120.002 40.182,119.819 40.182,119.819 L 40.138,119.736 Z M 40.297,120.421 C 40.473,120.747 40.727,121.212 41.049,121.757 C 41.209,122.029 41.379,122.336 41.57,122.646 C 41.761,122.957 41.967,123.286 42.173,123.621 C 42.597,124.289 43.053,125.006 43.538,125.703 C 44.496,127.101 45.518,128.461 46.32,129.445 C 46.514,129.699 46.702,129.92 46.87,130.121 C 47.034,130.315 47.176,130.487 47.297,130.63 C 47.414,130.77 47.507,130.881 47.571,130.957 L 47.61,131.003 L 45.488,132.839 L 45.444,132.788 C 45.376,132.709 45.277,132.593 45.153,132.443 C 45.027,132.294 44.882,132.117 44.704,131.905 C 44.528,131.698 44.335,131.467 44.132,131.208 C 43.294,130.171 42.226,128.754 41.224,127.292 C 40.718,126.565 40.239,125.815 39.791,125.114 C 39.575,124.76 39.362,124.414 39.165,124.089 C 38.958,123.766 38.797,123.46 38.623,123.168 C 38.28,122.592 38.022,122.108 37.835,121.765 C 37.741,121.594 37.667,121.46 37.616,121.368 L 37.584,121.311 L 40.061,119.99 L 40.089,120.041 C 40.136,120.128 40.206,120.257 40.297,120.421 Z" fill="#ffffff" stroke-width="0.5" stroke="none" fill-rule="evenodd" marker-start="none" marker-end="none" stroke-miterlimit="79.8403193612775"/>
    <path d="M 47.751,130.882 L 45.346,132.963 L 45.409,133.034 C 45.409,133.034 45.674,133.33 46.129,133.851 C 46.594,134.366 47.26,135.104 48.094,135.95 C 49.754,137.664 52.098,139.814 54.613,141.757 C 55.861,142.738 57.165,143.649 58.399,144.477 C 59.022,144.882 59.622,145.288 60.205,145.633 C 60.493,145.812 60.783,145.988 61.054,146.153 C 61.332,146.316 61.603,146.472 61.852,146.618 C 62.376,146.928 62.851,147.184 63.276,147.419 C 63.488,147.535 63.687,147.641 63.866,147.742 C 64.066,147.848 64.225,147.923 64.385,148.009 C 65.002,148.327 65.356,148.51 65.356,148.51 L 65.441,148.554 L 66.857,145.698 L 66.774,145.656 C 66.774,145.656 66.438,145.486 65.854,145.181 C 65.701,145.108 65.541,145.024 65.367,144.933 C 65.191,144.835 64.996,144.733 64.798,144.623 C 64.392,144.402 63.931,144.154 63.45,143.866 C 63.205,143.722 62.945,143.576 62.684,143.424 C 62.424,143.259 62.153,143.098 61.876,142.929 C 61.321,142.592 60.758,142.214 60.157,141.83 C 58.982,141.036 57.748,140.173 56.559,139.241 C 54.177,137.394 51.942,135.351 50.37,133.726 C 49.579,132.918 48.942,132.219 48.502,131.727 L 47.751,130.882 Z M 47.734,131.145 L 48.361,131.852 C 48.803,132.346 49.442,133.047 50.235,133.857 C 51.813,135.488 54.054,137.537 56.444,139.39 C 57.637,140.324 58.875,141.191 60.054,141.987 C 60.651,142.369 61.222,142.751 61.779,143.09 C 62.058,143.259 62.325,143.418 62.587,143.585 C 62.856,143.741 63.108,143.883 63.355,144.027 C 63.838,144.317 64.303,144.567 64.707,144.788 C 64.915,144.902 65.096,144.996 65.278,145.098 C 65.454,145.191 65.616,145.275 65.769,145.35 C 66.06,145.501 66.29,145.619 66.447,145.7 L 66.605,145.78 L 65.357,148.298 L 65.188,148.211 C 65.023,148.126 64.78,148.001 64.472,147.842 C 64.324,147.762 64.135,147.671 63.957,147.577 C 63.778,147.476 63.575,147.368 63.367,147.254 C 62.94,147.019 62.469,146.765 61.947,146.455 C 61.696,146.309 61.427,146.155 61.151,145.992 C 60.88,145.827 60.592,145.651 60.302,145.472 C 59.723,145.129 59.129,144.727 58.502,144.32 C 57.272,143.494 55.972,142.587 54.728,141.608 C 52.221,139.671 49.883,137.527 48.229,135.819 C 47.397,134.975 46.733,134.239 46.27,133.726 C 46.042,133.465 45.862,133.261 45.739,133.122 L 45.613,132.98 L 47.734,131.145 Z" fill="#ffffff" stroke-width="0.5" stroke="none" fill-rule="evenodd" marker-start="none" marker-end="none" stroke-miterlimit="79.8403193612775"/>
   </g>
   <g id="Layer_1"/>
  </g>
 </g>
</svg>
