<?xml version="1.0" standalone="no"?>
<!DOCTYPE svg PUBLIC "-//W3C//DTD SVG 1.1//EN" "http://www.w3.org/Graphics/SVG/1.1/DTD/svg11.dtd">
<!--Generator: Xara Designer (www.xara.com), SVG filter version: 6.3.0.4-->
<svg stroke-width="0.501" stroke-linejoin="bevel" fill-rule="evenodd" xmlns:xlink="http://www.w3.org/1999/xlink" xmlns="http://www.w3.org/2000/svg" version="1.1" overflow="visible" width="187.5pt" height="187.5pt" viewBox="0 0 187.5 187.5">
 <defs>
	</defs>
 <g id="Document" fill="none" stroke="black" font-family="Times New Roman" font-size="16" transform="scale(1 -1)">
  <g id="Spread" transform="translate(0 -187.5)">
   <g id="Layer 1">
    <g id="Group" fill="#a6ce3e" fill-rule="evenodd" stroke-linejoin="miter" stroke="none" stroke-width="0.013" stroke-miterlimit="79.8403193612775">
     <path d="M 33.641,163.199 C 33.605,163.138 33.376,163.077 33.136,163.077 C 32.69,163.077 32.16,162.933 31.448,162.631 C 31.245,162.549 31.014,162.475 30.943,162.475 C 30.871,162.475 30.809,162.428 30.809,162.354 C 30.809,162.295 30.702,162.234 30.581,162.234 C 30.448,162.234 30.305,162.187 30.269,162.113 C 30.233,162.054 30.112,161.993 30.015,161.993 C 29.907,161.993 29.751,161.921 29.666,161.849 C 29.269,161.488 29.123,161.391 29.003,161.391 C 28.944,161.391 28.883,161.342 28.883,161.27 C 28.883,161.211 28.798,161.15 28.703,161.15 C 28.473,161.15 26.354,159.031 26.354,158.801 C 26.354,158.706 26.305,158.621 26.233,158.621 C 26.172,158.621 26.113,158.56 26.113,158.488 C 26.113,158.416 26.039,158.283 25.967,158.198 C 25.595,157.778 25.511,157.658 25.511,157.489 C 25.511,157.391 25.462,157.271 25.39,157.235 C 25.316,157.199 25.27,157.055 25.27,156.922 C 25.27,156.802 25.232,156.694 25.185,156.694 C 25.088,156.694 24.847,156.115 24.57,155.236 C 24.486,155.006 24.425,154.609 24.425,154.368 C 24.425,154.127 24.378,153.899 24.304,153.863 C 24.232,153.814 24.184,152.262 24.184,149.574 L 24.184,145.37 L 26.413,145.37 L 28.642,145.37 L 28.642,102.728 L 28.642,60.086 L 45.506,60.086 C 63.864,60.086 62.695,60.132 62.07,59.41 C 61.901,59.217 61.768,59.025 61.768,58.989 C 61.768,58.953 61.635,58.759 61.478,58.579 C 61.322,58.398 61.117,58.098 61.022,57.929 C 60.938,57.76 60.745,57.483 60.6,57.314 C 60.443,57.145 60.323,56.952 60.323,56.868 C 60.323,56.783 60.274,56.712 60.202,56.712 C 60.143,56.712 60.082,56.65 60.082,56.581 C 60.082,56.507 60.01,56.374 59.926,56.291 C 59.575,55.892 59.48,55.748 59.48,55.628 C 59.48,55.566 59.444,55.507 59.383,55.507 C 59.336,55.507 59.19,55.315 59.07,55.085 C 58.937,54.857 58.793,54.664 58.732,54.664 C 58.685,54.664 58.637,54.592 58.637,54.521 C 58.637,54.434 58.442,54.121 58.214,53.832 C 57.986,53.545 57.794,53.268 57.794,53.23 C 57.794,53.171 57.589,52.894 57.071,52.292 C 57.01,52.207 56.951,52.087 56.951,52.013 C 56.951,51.954 56.902,51.892 56.83,51.892 C 56.769,51.892 56.708,51.821 56.708,51.736 C 56.708,51.654 56.589,51.459 56.444,51.29 C 56.287,51.123 56.082,50.834 55.987,50.629 C 55.89,50.437 55.685,50.135 55.529,49.965 C 55.383,49.796 55.263,49.617 55.263,49.556 C 55.263,49.496 55.168,49.363 55.047,49.256 C 54.927,49.148 54.722,48.882 54.601,48.677 C 54.468,48.461 54.325,48.28 54.276,48.28 C 54.227,48.28 54.179,48.195 54.179,48.098 C 54.179,47.99 54.048,47.785 53.879,47.629 C 53.71,47.472 53.577,47.255 53.577,47.147 C 53.577,47.039 53.528,46.955 53.456,46.955 C 53.397,46.955 53.336,46.894 53.336,46.834 C 53.336,46.763 53.203,46.558 53.036,46.376 C 52.867,46.196 52.734,45.991 52.734,45.907 C 52.734,45.822 52.685,45.751 52.626,45.751 C 52.565,45.751 52.432,45.556 52.324,45.328 C 52.216,45.1 52.07,44.908 52.024,44.908 C 51.975,44.908 51.806,44.667 51.65,44.377 C 51.504,44.075 51.299,43.811 51.217,43.775 C 51.12,43.739 51.048,43.629 51.048,43.522 C 51.048,43.424 50.999,43.34 50.927,43.34 C 50.866,43.34 50.807,43.257 50.807,43.16 C 50.807,43.063 50.758,42.979 50.686,42.979 C 50.625,42.979 50.566,42.907 50.566,42.81 C 50.566,42.714 50.481,42.617 50.384,42.571 C 50.289,42.533 50.205,42.425 50.205,42.317 C 50.205,42.22 50.156,42.136 50.084,42.136 C 50.023,42.136 49.964,42.051 49.964,41.956 C 49.964,41.859 49.915,41.774 49.843,41.774 C 49.782,41.774 49.723,41.69 49.723,41.595 C 49.723,41.487 49.638,41.377 49.541,41.341 C 49.446,41.293 49.362,41.198 49.362,41.1 C 49.362,41.003 49.313,40.931 49.239,40.931 C 49.18,40.931 49.121,40.872 49.121,40.798 C 49.121,40.642 47.445,38.246 47.289,38.185 C 47.24,38.161 47.192,38.077 47.192,37.992 C 47.192,37.908 47.061,37.69 46.892,37.511 C 46.723,37.329 46.59,37.101 46.59,37.004 C 46.59,36.919 46.541,36.837 46.469,36.837 C 46.41,36.837 46.349,36.775 46.349,36.716 C 46.349,36.642 46.216,36.437 46.049,36.258 C 45.88,36.078 45.747,35.871 45.747,35.789 C 45.747,35.704 45.698,35.63 45.626,35.63 C 45.567,35.63 45.506,35.571 45.506,35.51 C 45.506,35.438 45.375,35.174 45.206,34.908 C 45.037,34.644 44.904,34.318 44.904,34.185 C 44.904,34.054 44.855,33.944 44.796,33.944 C 44.399,33.944 44.399,29.993 44.783,29.066 C 44.845,28.935 44.976,28.597 45.096,28.32 C 45.216,28.031 45.35,27.803 45.409,27.803 C 45.457,27.803 45.506,27.716 45.506,27.621 C 45.506,27.524 45.567,27.439 45.626,27.439 C 45.698,27.439 45.747,27.331 45.747,27.198 C 45.747,27.067 45.831,26.957 45.928,26.957 C 46.024,26.957 46.108,26.911 46.108,26.85 C 46.108,26.681 47.338,25.512 47.517,25.512 C 47.602,25.512 47.674,25.464 47.674,25.392 C 47.674,25.333 47.758,25.271 47.855,25.271 C 47.95,25.271 48.037,25.223 48.037,25.174 C 48.037,25.115 48.265,24.982 48.542,24.862 C 48.831,24.754 49.157,24.61 49.265,24.536 C 49.385,24.477 49.638,24.428 49.831,24.428 C 50.036,24.428 50.228,24.38 50.264,24.308 C 50.312,24.236 51.829,24.188 54.42,24.188 C 57.01,24.188 58.529,24.236 58.575,24.308 C 58.611,24.38 58.842,24.428 59.07,24.428 C 59.298,24.428 59.575,24.477 59.697,24.536 C 59.805,24.61 60.13,24.754 60.42,24.862 C 60.697,24.982 60.925,25.115 60.925,25.174 C 60.925,25.223 60.997,25.271 61.094,25.271 C 61.189,25.271 61.468,25.464 61.721,25.694 C 61.96,25.922 62.19,26.114 62.214,26.114 C 62.286,26.114 62.852,26.693 62.852,26.778 C 62.852,26.814 62.985,26.995 63.154,27.175 C 63.323,27.357 63.454,27.56 63.454,27.644 C 63.454,27.729 63.492,27.803 63.551,27.803 C 63.6,27.803 63.743,27.995 63.864,28.223 C 63.997,28.453 64.141,28.646 64.202,28.646 C 64.25,28.646 64.299,28.753 64.299,28.886 C 64.299,29.017 64.358,29.127 64.419,29.127 C 64.491,29.127 64.54,29.199 64.54,29.294 C 64.54,29.391 64.586,29.489 64.635,29.512 C 64.696,29.524 64.973,29.958 65.262,30.452 C 65.552,30.946 65.829,31.367 65.888,31.39 C 65.936,31.415 65.985,31.513 65.985,31.608 C 65.985,31.705 66.044,31.777 66.105,31.777 C 66.177,31.777 66.226,31.884 66.226,32.018 C 66.226,32.151 66.274,32.258 66.334,32.258 C 66.393,32.258 66.479,32.356 66.515,32.476 C 66.562,32.596 66.682,32.801 66.805,32.932 C 66.912,33.065 67.092,33.33 67.2,33.537 C 67.515,34.139 67.73,34.487 67.804,34.547 C 67.84,34.582 67.971,34.787 68.094,35.005 C 68.225,35.21 68.37,35.389 68.417,35.389 C 68.465,35.389 68.514,35.499 68.514,35.63 C 68.514,35.763 68.575,35.871 68.634,35.871 C 68.706,35.871 68.755,35.945 68.755,36.04 C 68.755,36.137 68.803,36.235 68.852,36.258 C 68.911,36.281 69.188,36.704 69.477,37.198 C 69.767,37.69 70.044,38.126 70.105,38.136 C 70.153,38.161 70.2,38.257 70.2,38.354 C 70.2,38.451 70.261,38.523 70.32,38.523 C 70.392,38.523 70.441,38.63 70.441,38.764 C 70.441,38.897 70.489,39.004 70.551,39.004 C 70.61,39.004 70.694,39.102 70.73,39.222 C 70.779,39.34 70.899,39.547 71.02,39.678 C 71.127,39.812 71.309,40.076 71.417,40.281 C 71.73,40.883 71.947,41.233 72.019,41.293 C 72.055,41.328 72.188,41.533 72.308,41.751 C 72.442,41.956 72.585,42.136 72.634,42.136 C 72.682,42.136 72.731,42.245 72.731,42.376 C 72.731,42.51 72.79,42.617 72.851,42.617 C 72.923,42.617 72.972,42.702 72.972,42.799 C 72.972,42.896 73.008,42.979 73.067,42.979 C 73.116,42.979 73.259,43.184 73.392,43.424 C 73.718,44.065 74.225,44.836 74.333,44.882 C 74.381,44.908 74.417,45.003 74.417,45.1 C 74.417,45.195 74.476,45.269 74.537,45.269 C 74.609,45.269 74.658,45.377 74.658,45.51 C 74.658,45.641 74.694,45.751 74.755,45.751 C 74.802,45.751 74.947,45.943 75.068,46.171 C 75.199,46.401 75.345,46.594 75.404,46.594 C 75.452,46.594 75.501,46.678 75.501,46.786 C 75.501,46.894 75.634,47.134 75.801,47.339 C 75.97,47.534 76.103,47.775 76.103,47.87 C 76.103,47.967 76.139,48.039 76.2,48.039 C 76.247,48.039 76.392,48.231 76.513,48.461 C 76.646,48.689 76.79,48.882 76.851,48.882 C 76.897,48.882 76.946,48.989 76.946,49.123 C 76.946,49.256 77.007,49.363 77.066,49.363 C 77.138,49.363 77.187,49.425 77.187,49.484 C 77.187,49.604 77.284,49.75 77.645,50.147 C 77.717,50.232 77.789,50.388 77.789,50.473 C 77.789,50.568 77.899,50.76 78.03,50.906 C 78.163,51.049 78.271,51.208 78.271,51.267 C 78.271,51.328 78.404,51.531 78.573,51.725 C 78.742,51.918 78.873,52.146 78.873,52.23 C 78.873,52.315 78.945,52.471 79.031,52.556 C 79.38,52.953 79.475,53.099 79.475,53.219 C 79.475,53.278 79.536,53.34 79.595,53.34 C 79.669,53.34 79.716,53.447 79.716,53.58 C 79.716,53.714 79.777,53.821 79.838,53.821 C 79.91,53.821 79.957,53.906 79.957,54.001 C 79.957,54.098 79.995,54.183 80.054,54.183 C 80.103,54.183 80.32,54.508 80.536,54.905 C 80.766,55.302 80.994,55.628 81.053,55.628 C 81.115,55.628 81.163,55.735 81.163,55.869 C 81.163,56.002 81.222,56.109 81.284,56.109 C 81.355,56.109 81.404,56.194 81.404,56.291 C 81.404,56.386 81.463,56.471 81.524,56.471 C 81.596,56.471 81.645,56.555 81.645,56.663 C 81.645,56.76 81.717,56.929 81.801,57.014 C 82.15,57.411 82.247,57.555 82.247,57.675 C 82.247,57.736 82.306,57.795 82.367,57.795 C 82.439,57.795 82.488,57.857 82.488,57.941 C 82.488,58.013 82.619,58.254 82.788,58.472 C 82.957,58.687 83.09,58.953 83.09,59.048 C 83.09,59.158 83.126,59.241 83.187,59.241 C 83.234,59.241 83.379,59.435 83.5,59.663 C 83.705,60.048 83.777,60.086 84.258,60.086 L 84.776,60.086 L 84.776,45.159 C 84.776,35.33 84.812,30.198 84.896,30.15 C 84.968,30.114 85.017,29.922 85.017,29.717 C 85.017,29.524 85.065,29.271 85.114,29.15 C 85.173,29.043 85.306,28.766 85.414,28.548 C 85.524,28.32 85.619,28.067 85.619,27.969 C 85.619,27.874 85.68,27.803 85.739,27.803 C 85.811,27.803 85.86,27.741 85.86,27.669 C 85.86,27.598 85.932,27.477 86.016,27.38 C 86.088,27.295 86.27,27.078 86.403,26.886 C 86.536,26.706 86.751,26.463 86.872,26.368 C 86.992,26.26 87.246,26.03 87.425,25.85 C 87.607,25.656 87.789,25.512 87.825,25.512 C 87.871,25.512 88.197,25.32 88.558,25.092 C 88.919,24.862 89.329,24.669 89.462,24.669 C 89.595,24.669 89.739,24.61 89.775,24.549 C 89.811,24.477 90.028,24.428 90.256,24.428 C 90.487,24.428 90.702,24.38 90.738,24.308 C 90.835,24.139 96.667,24.139 96.762,24.308 C 96.798,24.38 97.015,24.428 97.243,24.428 C 97.474,24.428 97.689,24.49 97.725,24.549 C 97.761,24.621 97.907,24.669 98.038,24.669 C 98.291,24.669 99.726,25.525 100.146,25.935 C 100.292,26.068 100.508,26.26 100.628,26.368 C 100.761,26.463 100.966,26.706 101.099,26.886 C 101.23,27.078 101.412,27.295 101.496,27.38 C 101.568,27.477 101.64,27.598 101.64,27.669 C 101.64,27.741 101.701,27.803 101.761,27.803 C 101.832,27.803 101.881,27.874 101.881,27.969 C 101.881,28.067 101.978,28.32 102.086,28.548 C 102.194,28.766 102.327,29.043 102.388,29.15 C 102.437,29.271 102.483,29.524 102.483,29.717 C 102.483,29.922 102.532,30.114 102.604,30.15 C 102.688,30.198 102.724,35.33 102.724,45.159 L 102.724,60.086 L 103.242,60.086 C 103.723,60.086 103.797,60.048 104.002,59.663 C 104.123,59.435 104.266,59.241 104.315,59.241 C 104.374,59.241 104.412,59.158 104.412,59.048 C 104.412,58.953 104.543,58.687 104.712,58.472 C 104.881,58.254 105.012,58.013 105.012,57.941 C 105.012,57.857 105.073,57.795 105.135,57.795 C 105.206,57.795 105.255,57.724 105.255,57.639 C 105.255,57.555 105.386,57.35 105.555,57.17 C 105.724,56.988 105.857,56.76 105.857,56.65 C 105.857,56.555 105.916,56.471 105.978,56.471 C 106.049,56.471 106.098,56.386 106.098,56.291 C 106.098,56.194 106.157,56.109 106.218,56.109 C 106.29,56.109 106.339,56.002 106.339,55.869 C 106.339,55.735 106.387,55.628 106.447,55.628 C 106.508,55.628 106.736,55.302 106.964,54.905 C 107.182,54.508 107.397,54.183 107.446,54.183 C 107.507,54.183 107.543,54.098 107.543,54.001 C 107.543,53.906 107.602,53.821 107.664,53.821 C 107.735,53.821 107.784,53.714 107.784,53.58 C 107.784,53.447 107.843,53.34 107.904,53.34 C 107.976,53.34 108.025,53.278 108.025,53.206 C 108.025,53.135 108.097,53.002 108.181,52.917 C 108.542,52.507 108.627,52.374 108.627,52.23 C 108.627,52.146 108.76,51.918 108.929,51.725 C 109.096,51.531 109.229,51.303 109.229,51.208 C 109.229,51.123 109.278,51.049 109.337,51.049 C 109.398,51.049 109.519,50.87 109.603,50.652 C 109.688,50.447 109.821,50.206 109.893,50.122 C 110.254,49.689 110.313,49.604 110.313,49.484 C 110.313,49.425 110.374,49.363 110.433,49.363 C 110.507,49.363 110.554,49.256 110.554,49.123 C 110.554,48.989 110.602,48.882 110.651,48.882 C 110.71,48.882 110.856,48.689 110.989,48.461 C 111.11,48.231 111.253,48.039 111.302,48.039 C 111.361,48.039 111.397,47.967 111.397,47.87 C 111.397,47.775 111.53,47.534 111.699,47.339 C 111.868,47.134 111.999,46.894 111.999,46.786 C 111.999,46.678 112.048,46.594 112.096,46.594 C 112.155,46.594 112.301,46.401 112.434,46.171 C 112.555,45.943 112.698,45.751 112.747,45.751 C 112.806,45.751 112.844,45.641 112.844,45.51 C 112.844,45.377 112.903,45.269 112.962,45.269 C 113.036,45.269 113.085,45.195 113.085,45.1 C 113.085,45.003 113.131,44.908 113.18,44.882 C 113.241,44.869 113.518,44.436 113.808,43.942 C 114.097,43.45 114.374,43.027 114.433,43.004 C 114.481,42.979 114.53,42.883 114.53,42.786 C 114.53,42.689 114.589,42.617 114.651,42.617 C 114.722,42.617 114.771,42.51 114.771,42.376 C 114.771,42.245 114.82,42.136 114.866,42.136 C 114.915,42.136 115.06,41.956 115.191,41.738 C 115.312,41.533 115.445,41.328 115.481,41.293 C 115.553,41.233 115.77,40.883 116.083,40.281 C 116.193,40.076 116.372,39.812 116.48,39.678 C 116.601,39.547 116.723,39.34 116.77,39.222 C 116.806,39.102 116.89,39.004 116.951,39.004 C 117.01,39.004 117.059,38.897 117.059,38.764 C 117.059,38.63 117.12,38.523 117.18,38.523 C 117.251,38.523 117.3,38.451 117.3,38.354 C 117.3,38.257 117.349,38.161 117.397,38.136 C 117.456,38.113 117.733,37.69 118.022,37.198 C 118.312,36.704 118.589,36.281 118.65,36.258 C 118.696,36.235 118.745,36.137 118.745,36.04 C 118.745,35.945 118.806,35.871 118.865,35.871 C 118.939,35.871 118.986,35.812 118.986,35.753 C 118.986,35.643 119.552,34.703 119.711,34.547 C 119.77,34.487 119.998,34.09 120.3,33.537 C 120.408,33.33 120.59,33.065 120.697,32.932 C 120.818,32.801 120.938,32.596 120.987,32.476 C 121.023,32.356 121.107,32.258 121.166,32.258 C 121.228,32.258 121.276,32.151 121.276,32.018 C 121.276,31.884 121.335,31.777 121.397,31.777 C 121.468,31.777 121.517,31.705 121.517,31.608 C 121.517,31.513 121.563,31.415 121.612,31.39 C 121.673,31.379 121.95,30.946 122.24,30.452 C 122.529,29.958 122.806,29.537 122.865,29.512 C 122.914,29.489 122.962,29.391 122.962,29.294 C 122.962,29.199 123.021,29.127 123.083,29.127 C 123.154,29.127 123.203,29.017 123.203,28.886 C 123.203,28.753 123.252,28.646 123.298,28.646 C 123.359,28.646 123.503,28.453 123.636,28.223 C 123.757,27.995 123.902,27.803 123.949,27.803 C 124.01,27.803 124.046,27.729 124.046,27.644 C 124.046,27.56 124.179,27.357 124.348,27.175 C 124.515,26.995 124.648,26.814 124.648,26.778 C 124.648,26.693 125.214,26.114 125.286,26.114 C 125.312,26.114 125.54,25.922 125.781,25.694 C 126.034,25.464 126.311,25.271 126.408,25.271 C 126.503,25.271 126.575,25.223 126.575,25.151 C 126.575,25.092 126.708,25.007 126.877,24.959 C 127.046,24.923 127.179,24.838 127.179,24.777 C 127.179,24.718 127.31,24.669 127.467,24.669 C 127.636,24.669 127.805,24.61 127.841,24.549 C 127.876,24.477 128.13,24.428 128.394,24.428 C 128.648,24.428 128.865,24.38 128.865,24.308 C 128.865,24.236 130.321,24.188 133.008,24.188 C 135.647,24.188 137.187,24.236 137.236,24.308 C 137.272,24.38 137.502,24.428 137.73,24.428 C 137.959,24.428 138.14,24.49 138.14,24.549 C 138.14,24.621 138.225,24.669 138.345,24.669 C 138.609,24.669 139.465,25.054 139.465,25.174 C 139.465,25.223 139.55,25.271 139.645,25.271 C 139.742,25.271 139.826,25.333 139.826,25.392 C 139.826,25.464 139.898,25.512 139.983,25.512 C 140.164,25.512 141.392,26.681 141.392,26.85 C 141.392,26.911 141.476,26.957 141.574,26.957 C 141.669,26.957 141.753,27.067 141.753,27.198 C 141.753,27.331 141.814,27.439 141.874,27.439 C 141.948,27.439 141.994,27.524 141.994,27.621 C 141.994,27.716 142.043,27.803 142.091,27.803 C 142.15,27.803 142.283,28.031 142.404,28.32 C 142.512,28.597 142.657,28.922 142.729,29.03 C 142.79,29.15 142.837,29.391 142.837,29.584 C 142.837,29.765 142.898,29.981 142.97,30.055 C 143.198,30.283 142.957,33.944 142.706,33.944 C 142.645,33.944 142.596,34.054 142.596,34.185 C 142.596,34.318 142.465,34.644 142.296,34.908 C 142.127,35.174 141.994,35.438 141.994,35.51 C 141.994,35.571 141.948,35.63 141.874,35.63 C 141.814,35.63 141.753,35.704 141.753,35.789 C 141.753,35.871 141.622,36.078 141.453,36.258 C 141.284,36.437 141.151,36.642 141.151,36.716 C 141.151,36.775 141.102,36.837 141.031,36.837 C 140.971,36.837 140.91,36.919 140.91,37.004 C 140.91,37.101 140.777,37.329 140.608,37.511 C 140.441,37.69 140.308,37.908 140.308,37.992 C 140.308,38.077 140.259,38.161 140.213,38.185 C 140.054,38.246 138.381,40.642 138.381,40.798 C 138.381,40.872 138.333,40.931 138.261,40.931 C 138.199,40.931 138.14,41.003 138.14,41.1 C 138.14,41.198 138.056,41.293 137.959,41.341 C 137.864,41.377 137.779,41.487 137.779,41.595 C 137.779,41.69 137.73,41.774 137.659,41.774 C 137.597,41.774 137.538,41.859 137.538,41.956 C 137.538,42.051 137.49,42.136 137.418,42.136 C 137.356,42.136 137.297,42.22 137.297,42.317 C 137.297,42.425 137.213,42.533 137.116,42.571 C 137.021,42.617 136.936,42.714 136.936,42.81 C 136.936,42.907 136.887,42.979 136.816,42.979 C 136.754,42.979 136.695,43.063 136.695,43.16 C 136.695,43.257 136.647,43.34 136.575,43.34 C 136.513,43.34 136.454,43.424 136.454,43.522 C 136.454,43.629 136.38,43.739 136.285,43.775 C 136.201,43.811 135.996,44.075 135.85,44.377 C 135.694,44.667 135.525,44.908 135.478,44.908 C 135.43,44.908 135.286,45.1 135.176,45.328 C 135.068,45.556 134.935,45.751 134.876,45.751 C 134.815,45.751 134.766,45.822 134.766,45.907 C 134.766,45.991 134.635,46.196 134.466,46.376 C 134.297,46.558 134.164,46.763 134.164,46.834 C 134.164,46.894 134.115,46.955 134.044,46.955 C 133.984,46.955 133.923,47.039 133.923,47.147 C 133.923,47.255 133.79,47.472 133.623,47.629 C 133.454,47.785 133.321,47.99 133.321,48.098 C 133.321,48.195 133.272,48.28 133.226,48.28 C 133.177,48.28 133.032,48.461 132.901,48.666 C 132.78,48.882 132.575,49.148 132.455,49.256 C 132.334,49.363 132.237,49.496 132.237,49.556 C 132.237,49.617 132.117,49.796 131.973,49.965 C 131.817,50.135 131.612,50.437 131.515,50.629 C 131.417,50.834 131.213,51.123 131.069,51.29 C 130.913,51.459 130.792,51.654 130.792,51.736 C 130.792,51.821 130.743,51.892 130.672,51.892 C 130.61,51.892 130.551,51.954 130.551,52.013 C 130.551,52.087 130.49,52.207 130.431,52.292 C 129.913,52.894 129.708,53.171 129.708,53.23 C 129.708,53.268 129.514,53.545 129.286,53.832 C 129.057,54.121 128.865,54.434 128.865,54.521 C 128.865,54.592 128.817,54.664 128.745,54.664 C 128.684,54.664 128.624,54.723 128.624,54.797 C 128.624,54.869 128.55,55.002 128.479,55.085 C 128.143,55.459 128.022,55.615 128.022,55.687 C 128.022,55.735 127.948,55.843 127.876,55.93 C 127.515,56.327 127.418,56.471 127.418,56.591 C 127.418,56.65 127.372,56.712 127.298,56.712 C 127.238,56.712 127.179,56.783 127.179,56.868 C 127.179,56.952 127.046,57.157 126.877,57.339 C 126.708,57.519 126.575,57.7 126.575,57.747 C 126.575,57.844 125.514,59.35 125.286,59.579 C 124.781,60.109 124.154,60.086 141.994,60.086 L 158.858,60.086 L 158.858,102.728 L 158.858,145.37 L 161.087,145.37 L 163.316,145.37 L 163.316,149.574 C 163.316,152.262 163.267,153.814 163.196,153.863 C 163.134,153.899 163.075,154.127 163.075,154.368 C 163.075,154.609 163.014,155.006 162.932,155.236 C 162.653,156.115 162.412,156.694 162.327,156.694 C 162.268,156.694 162.232,156.802 162.232,156.922 C 162.232,157.055 162.184,157.199 162.112,157.235 C 162.051,157.271 161.991,157.391 161.991,157.489 C 161.991,157.596 161.917,157.753 161.846,157.837 C 161.484,158.234 161.389,158.38 161.389,158.501 C 161.389,158.56 161.341,158.621 161.269,158.621 C 161.208,158.621 161.148,158.706 161.148,158.801 C 161.148,159.031 159.027,161.15 158.799,161.15 C 158.702,161.15 158.617,161.211 158.617,161.27 C 158.617,161.342 158.558,161.391 158.486,161.391 C 158.412,161.391 158.281,161.465 158.197,161.547 C 157.774,161.911 157.654,161.993 157.485,161.993 C 157.39,161.993 157.269,162.054 157.233,162.113 C 157.197,162.187 157.052,162.234 156.921,162.234 C 156.798,162.234 156.69,162.272 156.69,162.331 C 156.69,162.416 156.114,162.656 155.233,162.933 C 155.004,163.018 154.607,163.077 154.366,163.077 C 154.126,163.077 153.895,163.138 153.859,163.199 C 153.811,163.282 133.646,163.32 93.751,163.32 C 53.853,163.32 33.689,163.282 33.641,163.199 Z M 153.895,158.68 C 154.174,158.634 154.402,158.549 154.402,158.488 C 154.402,158.429 154.461,158.38 154.546,158.38 C 154.956,158.38 156.052,157.658 156.859,156.851 C 157.364,156.343 157.774,155.887 157.774,155.826 C 157.774,155.754 157.884,155.562 158.005,155.38 C 158.136,155.2 158.281,154.911 158.317,154.729 C 158.366,154.55 158.45,154.404 158.497,154.404 C 158.655,154.404 158.763,153.489 158.812,151.67 L 158.871,149.948 L 136.406,149.948 L 113.928,149.948 L 113.928,150.491 C 113.928,150.791 113.879,151.032 113.808,151.032 C 113.746,151.032 113.687,151.165 113.687,151.321 C 113.687,151.478 113.554,151.803 113.385,152.044 C 113.216,152.285 113.085,152.513 113.085,152.549 C 113.085,152.695 111.963,153.681 111.722,153.753 C 111.579,153.802 111.435,153.874 111.397,153.922 C 111.361,153.958 111.061,154.091 110.71,154.199 C 110.144,154.393 108.699,154.404 93.751,154.404 C 78.801,154.404 77.356,154.393 76.79,154.199 C 76.441,154.091 76.139,153.958 76.103,153.922 C 76.067,153.874 75.921,153.791 75.765,153.753 C 75.501,153.671 74.417,152.695 74.417,152.538 C 74.417,152.502 74.284,152.262 74.115,152.019 C 73.948,151.78 73.815,151.454 73.815,151.309 C 73.815,151.152 73.766,151.032 73.694,151.032 C 73.633,151.032 73.574,150.791 73.574,150.491 L 73.574,149.948 L 51.096,149.948 L 28.629,149.948 L 28.69,151.67 C 28.739,153.538 28.847,154.404 29.016,154.404 C 29.075,154.404 29.123,154.453 29.123,154.524 C 29.123,154.729 29.533,155.61 29.631,155.61 C 29.69,155.61 29.726,155.682 29.726,155.777 C 29.726,155.959 31.509,157.778 31.678,157.778 C 31.75,157.778 31.942,157.886 32.124,158.006 C 32.303,158.139 32.593,158.283 32.774,158.319 C 32.954,158.367 33.1,158.452 33.1,158.511 C 33.1,158.572 33.279,158.621 33.497,158.621 C 33.702,158.621 33.966,158.68 34.063,158.741 C 34.279,158.885 153.101,158.826 153.895,158.68 Z M 109.447,147.635 L 109.47,145.37 L 93.751,145.37 L 78.03,145.37 L 78.03,147.575 C 78.03,148.79 78.066,149.828 78.114,149.864 C 78.15,149.912 85.222,149.935 93.8,149.923 L 109.411,149.887 L 109.447,147.635 Z M 73.574,144.829 C 73.574,144.527 73.633,144.286 73.694,144.286 C 73.766,144.286 73.815,144.178 73.815,144.045 C 73.815,143.094 75.754,141.155 76.705,141.155 C 76.838,141.155 76.946,141.106 76.946,141.034 C 76.946,140.95 82.631,140.914 93.751,140.914 C 104.868,140.914 110.554,140.95 110.554,141.034 C 110.554,141.106 110.664,141.155 110.795,141.155 C 111.748,141.155 113.687,143.094 113.687,144.045 C 113.687,144.178 113.746,144.286 113.808,144.286 C 113.879,144.286 113.928,144.527 113.928,144.829 L 113.928,145.37 L 134.164,145.37 L 154.402,145.37 L 154.402,104.957 L 154.402,64.541 L 93.751,64.541 L 33.1,64.541 L 33.1,104.957 L 33.1,145.37 L 53.336,145.37 L 73.574,145.37 L 73.574,144.829 Z M 78.271,59.881 C 78.271,59.76 78.163,59.53 78.03,59.361 C 77.899,59.192 77.789,59.012 77.789,58.953 C 77.789,58.892 77.656,58.664 77.489,58.446 C 77.32,58.229 77.187,58 77.187,57.929 C 77.187,57.857 77.138,57.795 77.066,57.795 C 77.007,57.795 76.946,57.724 76.946,57.626 C 76.946,57.544 76.815,57.326 76.646,57.145 C 76.477,56.965 76.344,56.737 76.344,56.64 C 76.344,56.555 76.295,56.471 76.236,56.471 C 76.175,56.471 76.103,56.374 76.054,56.266 C 75.995,56.05 75.742,55.628 75.621,55.507 C 75.585,55.471 75.476,55.29 75.38,55.085 C 75.199,54.736 75.091,54.567 74.825,54.267 C 74.766,54.183 74.622,53.942 74.525,53.737 C 74.44,53.519 74.333,53.34 74.297,53.34 C 74.261,53.34 74.128,53.145 74.007,52.917 C 73.874,52.689 73.73,52.497 73.669,52.497 C 73.623,52.497 73.574,52.412 73.574,52.292 C 73.574,52.182 73.441,51.918 73.272,51.7 C 73.103,51.485 72.972,51.254 72.972,51.182 C 72.972,51.111 72.923,51.049 72.851,51.049 C 72.79,51.049 72.731,50.99 72.731,50.906 C 72.731,50.834 72.598,50.593 72.429,50.375 C 72.26,50.158 72.127,49.93 72.127,49.858 C 72.127,49.786 72.08,49.725 72.006,49.725 C 71.947,49.725 71.888,49.665 71.888,49.594 C 71.888,49.52 71.755,49.292 71.586,49.074 C 71.417,48.858 71.284,48.641 71.284,48.592 C 71.284,48.52 70.682,47.557 70.561,47.437 C 70.525,47.401 70.418,47.219 70.32,47.014 C 70.225,46.822 70.115,46.629 70.08,46.594 C 69.923,46.448 69.357,45.497 69.357,45.4 C 69.357,45.341 69.321,45.269 69.272,45.243 C 69.152,45.195 68.514,44.221 68.514,44.111 C 68.514,44.065 68.381,43.847 68.214,43.629 C 68.045,43.414 67.912,43.184 67.912,43.112 C 67.912,43.04 67.863,42.979 67.791,42.979 C 67.73,42.979 67.671,42.919 67.671,42.848 C 67.671,42.776 67.538,42.545 67.369,42.328 C 67.2,42.112 67.069,41.895 67.069,41.846 C 67.069,41.774 66.467,40.811 66.346,40.69 C 66.31,40.655 66.2,40.473 66.105,40.268 C 66.008,40.076 65.9,39.883 65.865,39.847 C 65.708,39.704 65.142,38.751 65.142,38.656 C 65.142,38.595 65.104,38.523 65.057,38.497 C 64.948,38.461 64.299,37.487 64.299,37.378 C 64.299,37.329 64.166,37.124 63.997,36.909 C 63.828,36.691 63.695,36.45 63.695,36.378 C 63.695,36.294 63.648,36.235 63.574,36.235 C 63.515,36.235 63.454,36.173 63.454,36.102 C 63.454,36.03 63.323,35.799 63.154,35.584 C 62.985,35.366 62.852,35.149 62.852,35.102 C 62.852,35.028 62.25,34.065 62.129,33.944 C 62.093,33.908 61.986,33.729 61.888,33.524 C 61.791,33.33 61.683,33.137 61.647,33.101 C 61.491,32.958 60.925,32.005 60.925,31.91 C 60.925,31.848 60.876,31.777 60.828,31.753 C 60.781,31.741 60.42,31.21 60.021,30.583 C 59.623,29.945 59.167,29.368 58.973,29.258 C 58.793,29.15 58.637,29.03 58.637,28.981 C 58.637,28.922 58.529,28.886 58.409,28.886 C 58.275,28.886 58.13,28.838 58.094,28.766 C 57.999,28.597 50.963,28.597 50.866,28.766 C 50.83,28.838 50.686,28.886 50.566,28.886 C 50.277,28.886 49.121,30.042 49.121,30.332 C 49.121,30.463 49.072,30.596 49,30.632 C 48.844,30.729 48.844,32.343 49,32.44 C 49.072,32.476 49.121,32.607 49.121,32.727 C 49.121,32.848 49.252,33.089 49.421,33.27 C 49.59,33.45 49.723,33.632 49.723,33.668 C 49.723,33.775 50.843,35.33 50.951,35.366 C 50.999,35.389 51.048,35.474 51.048,35.548 C 51.048,35.63 51.181,35.835 51.348,36.017 C 51.517,36.197 51.65,36.427 51.65,36.535 C 51.65,36.632 51.711,36.716 51.77,36.716 C 51.842,36.716 51.891,36.799 51.891,36.896 C 51.891,36.993 51.963,37.078 52.047,37.078 C 52.132,37.078 52.275,37.27 52.372,37.498 C 52.47,37.726 52.565,37.921 52.613,37.921 C 52.649,37.921 52.782,38.1 52.913,38.318 C 53.036,38.523 53.239,38.812 53.359,38.933 C 53.482,39.064 53.577,39.233 53.577,39.304 C 53.577,39.378 53.71,39.571 53.879,39.727 C 54.048,39.883 54.179,40.065 54.179,40.137 C 54.179,40.257 54.348,40.473 54.901,41.136 C 54.963,41.221 55.022,41.341 55.022,41.413 C 55.022,41.474 55.083,41.533 55.142,41.533 C 55.216,41.533 55.263,41.595 55.263,41.654 C 55.263,41.774 55.36,41.92 55.721,42.317 C 55.793,42.402 55.867,42.533 55.867,42.607 C 55.867,42.679 55.926,42.738 55.987,42.738 C 56.059,42.738 56.106,42.81 56.106,42.896 C 56.106,42.979 56.239,43.184 56.408,43.365 C 56.577,43.545 56.708,43.726 56.708,43.775 C 56.708,43.86 57.781,45.4 57.914,45.51 C 57.961,45.546 58.094,45.751 58.214,45.966 C 58.347,46.171 58.491,46.353 58.54,46.353 C 58.588,46.353 58.637,46.412 58.637,46.484 C 58.637,46.558 58.768,46.786 58.937,47.003 C 59.106,47.219 59.239,47.46 59.239,47.534 C 59.239,47.616 59.298,47.677 59.359,47.677 C 59.431,47.677 59.48,47.737 59.48,47.798 C 59.48,47.87 59.613,48.075 59.78,48.256 C 59.949,48.436 60.082,48.618 60.082,48.677 C 60.082,48.725 60.215,48.918 60.382,49.099 C 60.551,49.279 60.684,49.484 60.684,49.568 C 60.684,49.653 60.733,49.725 60.792,49.725 C 60.853,49.725 60.986,49.906 61.081,50.122 C 61.189,50.339 61.383,50.616 61.527,50.749 C 61.66,50.87 61.768,51.026 61.768,51.098 C 61.768,51.172 61.901,51.387 62.07,51.58 C 62.239,51.774 62.37,51.966 62.37,52.002 C 62.37,52.038 62.539,52.266 62.731,52.497 C 62.924,52.725 63.093,52.953 63.093,52.989 C 63.093,53.025 63.226,53.219 63.395,53.411 C 63.564,53.604 63.695,53.821 63.695,53.893 C 63.695,53.965 63.828,54.147 63.997,54.303 C 64.166,54.459 64.299,54.652 64.299,54.723 C 64.299,54.797 64.394,54.964 64.514,55.097 C 64.635,55.218 64.84,55.507 64.96,55.725 C 65.093,55.93 65.237,56.109 65.286,56.109 C 65.334,56.109 65.383,56.181 65.383,56.266 C 65.383,56.35 65.514,56.555 65.683,56.737 C 65.852,56.917 65.985,57.121 65.985,57.193 C 65.985,57.255 66.044,57.314 66.105,57.314 C 66.177,57.314 66.226,57.375 66.226,57.447 C 66.226,57.519 66.359,57.747 66.526,57.964 C 66.695,58.182 66.828,58.423 66.828,58.495 C 66.828,58.579 66.874,58.638 66.923,58.638 C 66.972,58.638 67.117,58.82 67.248,59.036 C 67.369,59.241 67.574,59.53 67.694,59.65 C 67.815,59.784 67.912,59.929 67.912,59.988 C 67.912,60.037 70.249,60.086 73.092,60.086 C 77.945,60.086 78.271,60.073 78.271,59.881 Z M 98.268,45.52 L 98.268,30.946 L 97.966,30.391 C 97.592,29.681 96.81,28.886 96.485,28.886 C 96.341,28.886 96.195,28.838 96.16,28.766 C 96.062,28.61 91.438,28.61 91.34,28.766 C 91.304,28.838 91.161,28.886 91.015,28.886 C 90.69,28.886 89.908,29.681 89.534,30.391 L 89.234,30.946 L 89.234,45.52 L 89.234,60.086 L 93.751,60.086 L 98.268,60.086 L 98.268,45.52 Z M 119.588,59.988 C 119.588,59.929 119.685,59.784 119.806,59.65 C 119.926,59.53 120.131,59.241 120.251,59.036 C 120.385,58.82 120.528,58.638 120.577,58.638 C 120.625,58.638 120.674,58.579 120.674,58.507 C 120.674,58.433 120.805,58.205 120.974,57.99 C 121.143,57.772 121.276,57.531 121.276,57.459 C 121.276,57.375 121.335,57.314 121.397,57.314 C 121.468,57.314 121.517,57.255 121.517,57.193 C 121.517,57.121 121.648,56.917 121.817,56.737 C 121.986,56.555 122.119,56.35 122.119,56.266 C 122.119,56.181 122.166,56.109 122.214,56.109 C 122.263,56.109 122.409,55.93 122.54,55.725 C 122.66,55.507 122.865,55.218 122.985,55.097 C 123.106,54.964 123.203,54.797 123.203,54.723 C 123.203,54.652 123.336,54.459 123.503,54.303 C 123.672,54.147 123.805,53.965 123.805,53.893 C 123.805,53.821 123.938,53.604 124.105,53.411 C 124.274,53.219 124.407,53.025 124.407,52.989 C 124.407,52.953 124.576,52.725 124.769,52.497 C 124.961,52.266 125.13,52.038 125.13,52.002 C 125.13,51.966 125.263,51.774 125.432,51.58 C 125.601,51.387 125.732,51.172 125.732,51.098 C 125.732,51.026 125.84,50.87 125.973,50.749 C 126.119,50.616 126.311,50.339 126.419,50.122 C 126.516,49.906 126.647,49.725 126.708,49.725 C 126.767,49.725 126.816,49.653 126.816,49.568 C 126.816,49.484 126.949,49.279 127.118,49.099 C 127.287,48.918 127.418,48.725 127.418,48.677 C 127.418,48.618 127.551,48.436 127.72,48.256 C 127.889,48.075 128.022,47.87 128.022,47.798 C 128.022,47.737 128.081,47.677 128.143,47.677 C 128.214,47.677 128.263,47.616 128.263,47.544 C 128.263,47.472 128.394,47.244 128.563,47.027 C 128.732,46.809 128.865,46.57 128.865,46.496 C 128.865,46.412 128.912,46.353 128.96,46.353 C 129.009,46.353 129.153,46.171 129.286,45.966 C 129.406,45.751 129.539,45.546 129.588,45.51 C 129.721,45.4 130.792,43.86 130.792,43.775 C 130.792,43.726 130.923,43.545 131.092,43.365 C 131.261,43.184 131.394,42.979 131.394,42.896 C 131.394,42.81 131.455,42.738 131.515,42.738 C 131.586,42.738 131.635,42.679 131.635,42.617 C 131.635,42.497 131.732,42.353 132.094,41.956 C 132.165,41.871 132.237,41.738 132.237,41.667 C 132.237,41.595 132.298,41.533 132.358,41.533 C 132.429,41.533 132.478,41.474 132.478,41.413 C 132.478,41.341 132.539,41.221 132.598,41.136 C 133.152,40.473 133.321,40.257 133.321,40.137 C 133.321,40.065 133.454,39.883 133.623,39.727 C 133.79,39.571 133.923,39.378 133.923,39.304 C 133.923,39.233 134.02,39.064 134.141,38.933 C 134.261,38.812 134.466,38.523 134.587,38.318 C 134.718,38.1 134.851,37.921 134.887,37.921 C 134.935,37.921 135.032,37.726 135.13,37.498 C 135.225,37.27 135.368,37.078 135.453,37.078 C 135.537,37.078 135.611,36.993 135.611,36.896 C 135.611,36.799 135.67,36.716 135.73,36.716 C 135.804,36.716 135.85,36.632 135.85,36.535 C 135.85,36.427 135.983,36.197 136.152,36.017 C 136.321,35.835 136.454,35.63 136.454,35.548 C 136.454,35.474 136.501,35.389 136.549,35.366 C 136.657,35.33 137.779,33.775 137.779,33.668 C 137.779,33.632 137.887,33.475 138.03,33.319 C 138.176,33.163 138.356,32.825 138.453,32.56 C 138.645,32.005 138.681,30.741 138.502,30.632 C 138.44,30.596 138.381,30.463 138.381,30.332 C 138.381,30.042 137.225,28.886 136.936,28.886 C 136.816,28.886 136.67,28.838 136.634,28.766 C 136.585,28.692 135.248,28.646 133.021,28.646 C 130.792,28.646 129.455,28.692 129.406,28.766 C 129.37,28.838 129.227,28.886 129.093,28.886 C 128.973,28.886 128.865,28.922 128.865,28.981 C 128.865,29.03 128.707,29.15 128.527,29.258 C 128.335,29.368 127.876,29.945 127.479,30.583 C 127.082,31.21 126.721,31.741 126.672,31.753 C 126.624,31.777 126.575,31.848 126.575,31.91 C 126.575,32.005 126.009,32.958 125.852,33.101 C 125.817,33.137 125.709,33.33 125.612,33.524 C 125.514,33.729 125.407,33.908 125.371,33.944 C 125.25,34.065 124.648,35.028 124.648,35.102 C 124.648,35.149 124.515,35.366 124.348,35.584 C 124.179,35.799 124.046,36.03 124.046,36.102 C 124.046,36.173 123.997,36.235 123.926,36.235 C 123.866,36.235 123.805,36.294 123.805,36.378 C 123.805,36.45 123.672,36.691 123.503,36.909 C 123.336,37.124 123.203,37.329 123.203,37.378 C 123.203,37.487 122.552,38.461 122.455,38.497 C 122.396,38.523 122.36,38.595 122.36,38.656 C 122.36,38.751 121.794,39.704 121.637,39.847 C 121.602,39.883 121.492,40.076 121.397,40.268 C 121.299,40.473 121.192,40.655 121.156,40.69 C 121.035,40.811 120.431,41.774 120.431,41.846 C 120.431,41.895 120.3,42.112 120.131,42.328 C 119.962,42.545 119.829,42.776 119.829,42.848 C 119.829,42.919 119.782,42.979 119.711,42.979 C 119.649,42.979 119.588,43.04 119.588,43.124 C 119.588,43.196 119.457,43.437 119.288,43.655 C 119.119,43.87 118.986,44.075 118.986,44.124 C 118.986,44.231 118.335,45.208 118.24,45.243 C 118.179,45.269 118.143,45.341 118.143,45.4 C 118.143,45.497 117.577,46.448 117.42,46.594 C 117.384,46.629 117.277,46.822 117.18,47.014 C 117.082,47.219 116.975,47.401 116.939,47.437 C 116.818,47.557 116.216,48.52 116.216,48.592 C 116.216,48.641 116.083,48.858 115.916,49.074 C 115.747,49.292 115.614,49.52 115.614,49.594 C 115.614,49.665 115.565,49.725 115.494,49.725 C 115.434,49.725 115.373,49.786 115.373,49.87 C 115.373,49.942 115.24,50.183 115.071,50.401 C 114.904,50.616 114.771,50.847 114.771,50.918 C 114.771,50.99 114.722,51.049 114.651,51.049 C 114.589,51.049 114.53,51.111 114.53,51.182 C 114.53,51.254 114.397,51.485 114.228,51.7 C 114.059,51.918 113.928,52.182 113.928,52.292 C 113.928,52.412 113.879,52.497 113.831,52.497 C 113.772,52.497 113.626,52.689 113.495,52.917 C 113.374,53.145 113.241,53.34 113.205,53.34 C 113.169,53.34 113.072,53.519 112.975,53.737 C 112.88,53.942 112.77,54.147 112.734,54.183 C 112.578,54.303 111.999,55.266 111.999,55.387 C 111.999,55.448 111.953,55.507 111.891,55.507 C 111.832,55.507 111.748,55.604 111.712,55.725 C 111.553,56.109 111.338,56.471 111.253,56.471 C 111.192,56.471 111.156,56.555 111.156,56.65 C 111.156,56.76 111.025,56.988 110.856,57.17 C 110.687,57.35 110.554,57.555 110.554,57.639 C 110.554,57.724 110.507,57.795 110.433,57.795 C 110.374,57.795 110.313,57.857 110.313,57.929 C 110.313,58 110.182,58.229 110.013,58.446 C 109.844,58.664 109.711,58.892 109.711,58.953 C 109.711,59.012 109.603,59.192 109.47,59.361 C 109.337,59.53 109.229,59.76 109.229,59.881 C 109.229,60.073 109.555,60.086 114.41,60.086 C 117.264,60.086 119.588,60.037 119.588,59.988 Z" marker-start="none" marker-end="none"/>
     <path d="M 43.036,134.047 C 43,133.986 42.808,133.927 42.616,133.927 C 41.988,133.927 40.568,133.084 39.664,132.18 C 38.327,130.83 37.93,129.989 37.676,127.965 C 37.545,126.856 37.545,96.668 37.676,95.5 C 37.832,94.127 37.917,93.837 38.375,92.935 C 38.737,92.21 40.025,90.681 40.254,90.681 C 40.302,90.681 40.423,90.609 40.52,90.537 C 40.615,90.453 40.761,90.332 40.845,90.26 C 41.061,90.079 42.037,89.658 42.736,89.428 C 43.036,89.345 49.687,89.284 65.081,89.236 L 87.005,89.176 L 87.064,81.767 C 87.1,77.696 87.174,74.226 87.233,74.057 C 87.897,71.997 89.029,70.65 90.859,69.745 C 91.571,69.384 91.642,69.361 91.919,69.361 C 92.076,69.361 92.268,69.289 92.342,69.202 C 92.57,68.987 144.32,68.987 144.536,69.202 C 144.62,69.289 144.815,69.361 144.971,69.361 C 145.127,69.361 145.343,69.409 145.463,69.456 C 145.573,69.517 145.922,69.686 146.224,69.83 C 147.428,70.409 148.607,71.626 149.173,72.853 C 149.283,73.083 149.414,73.371 149.475,73.481 C 149.534,73.601 149.583,73.817 149.583,73.973 C 149.583,74.129 149.655,74.324 149.739,74.395 C 149.849,74.516 149.898,77.949 149.921,90.537 C 149.957,106.919 149.921,108.39 149.475,109.533 C 149.042,110.642 148.837,110.942 147.838,111.941 C 146.934,112.858 145.524,113.689 144.874,113.689 C 144.681,113.689 144.525,113.737 144.525,113.809 C 144.525,113.894 137.044,113.942 122.516,113.955 L 100.497,113.991 L 100.423,121.398 C 100.351,128.493 100.303,129.71 100.062,129.71 C 100.003,129.71 99.954,129.82 99.954,129.951 C 99.954,130.084 99.821,130.409 99.652,130.673 C 99.485,130.94 99.352,131.18 99.352,131.229 C 99.352,131.265 98.955,131.685 98.484,132.167 C 97.546,133.084 96.124,133.927 95.496,133.927 C 95.304,133.927 95.112,133.986 95.076,134.047 C 95.027,134.132 86.221,134.168 69.057,134.168 C 51.891,134.168 43.085,134.132 43.036,134.047 Z M 94.558,129.541 C 94.774,129.446 95.112,129.218 95.291,129.036 C 96.003,128.326 95.978,128.613 95.978,120.952 L 95.978,113.93 L 94.171,113.93 C 93.052,113.93 92.365,113.881 92.365,113.809 C 92.365,113.75 92.183,113.689 91.955,113.689 C 91.727,113.689 91.509,113.642 91.461,113.581 C 91.425,113.52 91.233,113.437 91.04,113.389 C 90.835,113.34 90.679,113.268 90.679,113.232 C 90.679,113.184 90.497,113.074 90.292,112.979 C 90.077,112.882 89.523,112.423 89.052,111.954 C 88.161,111.039 88.017,110.858 87.715,110.196 C 87.607,109.968 87.474,109.679 87.415,109.569 C 87.354,109.448 87.307,109.233 87.307,109.074 C 87.307,108.918 87.258,108.751 87.197,108.679 C 87.138,108.618 87.064,108.039 87.041,107.401 C 87.028,106.763 86.969,106.21 86.92,106.161 C 86.836,106.076 84.776,108.088 84.776,108.269 C 84.776,108.341 84.717,108.39 84.656,108.39 C 84.584,108.39 84.391,108.521 84.233,108.69 C 84.066,108.846 83.933,109.041 83.933,109.112 C 83.933,109.172 83.872,109.233 83.813,109.233 C 83.644,109.233 81.163,111.713 81.163,111.882 C 81.163,111.941 81.102,112.003 81.043,112.003 C 80.874,112.003 80.32,112.556 80.32,112.725 C 80.32,112.787 80.272,112.846 80.198,112.846 C 80.138,112.846 78.645,114.28 76.897,116.038 C 75.14,117.796 73.623,119.231 73.525,119.231 C 73.441,119.231 71.406,117.278 69.021,114.895 C 66.636,112.51 64.622,110.558 64.55,110.558 C 64.419,110.558 54.42,120.483 54.42,120.617 C 54.42,120.652 55.18,120.676 56.106,120.676 L 57.794,120.676 L 57.794,122.905 L 57.794,125.134 L 52.193,125.134 L 46.59,125.134 L 46.59,119.533 L 46.59,113.93 L 48.819,113.93 L 51.048,113.93 L 51.048,115.616 C 51.048,116.617 51.096,117.304 51.168,117.304 C 51.227,117.304 54.24,114.352 57.84,110.737 C 61.455,107.124 64.502,104.173 64.599,104.173 C 64.696,104.173 64.781,104.234 64.781,104.293 C 64.781,104.365 64.865,104.414 64.96,104.414 C 65.057,104.414 65.142,104.473 65.142,104.534 C 65.142,104.606 65.273,104.798 65.442,104.957 C 65.598,105.124 65.791,105.257 65.865,105.257 C 65.924,105.257 65.985,105.318 65.985,105.377 C 65.985,105.523 66.526,106.1 66.646,106.1 C 66.743,106.1 67.069,106.425 67.069,106.522 C 67.069,106.619 67.394,106.945 67.489,106.945 C 67.586,106.945 67.912,107.27 67.912,107.365 C 67.912,107.462 68.237,107.786 68.332,107.786 C 68.429,107.786 68.755,108.111 68.755,108.208 C 68.755,108.305 69.08,108.631 69.177,108.631 C 69.272,108.631 69.598,108.956 69.598,109.051 C 69.598,109.161 69.923,109.474 70.031,109.474 C 70.128,109.474 70.682,110.099 70.682,110.232 C 70.682,110.281 70.743,110.317 70.815,110.317 C 70.961,110.317 71.525,110.919 71.525,111.075 C 71.525,111.124 71.586,111.16 71.658,111.16 C 71.801,111.16 72.37,111.762 72.37,111.918 C 72.37,111.967 72.429,112.003 72.501,112.003 C 72.647,112.003 73.213,112.605 73.213,112.761 C 73.213,113.243 74.235,112.305 80.356,106.197 L 87.005,99.548 L 87.041,96.896 C 87.064,95.451 87.054,94.127 87.005,93.97 L 86.944,93.693 L 65.347,93.717 L 43.761,93.753 L 43.277,94.042 C 42.808,94.319 42.58,94.572 42.29,95.126 C 42.17,95.344 42.134,98.897 42.134,111.703 C 42.134,129.349 42.098,128.229 42.772,129.013 C 43.41,129.735 41.532,129.687 69.008,129.699 C 90.51,129.71 94.197,129.687 94.558,129.541 Z M 144.054,109.269 C 144.536,109.041 145.127,108.436 145.127,108.196 C 145.127,108.1 145.186,108.029 145.248,108.029 C 145.332,108.029 145.368,102.451 145.368,91.526 C 145.368,80.599 145.332,75.023 145.248,75.023 C 145.186,75.023 145.127,74.936 145.127,74.841 C 145.127,74.611 144.331,73.817 144.103,73.817 C 144.005,73.817 143.921,73.768 143.921,73.696 C 143.921,73.612 135.345,73.576 118.445,73.576 C 101.545,73.576 92.967,73.612 92.967,73.696 C 92.967,73.768 92.895,73.817 92.798,73.817 C 92.557,73.817 91.955,74.408 91.727,74.89 C 91.535,75.262 91.522,76.55 91.522,91.526 C 91.522,106.522 91.535,107.775 91.727,108.16 C 91.968,108.654 92.316,109.015 92.798,109.256 C 93.111,109.425 95.906,109.448 118.396,109.461 C 141.838,109.474 143.669,109.461 144.054,109.269 Z" marker-start="none" marker-end="none"/>
     <path d="M 129.731,102.764 L 129.767,100.499 L 131.43,100.463 C 132.334,100.45 133.08,100.404 133.08,100.366 C 133.08,100.245 132.744,99.958 132.611,99.958 C 132.539,99.958 132.478,99.897 132.478,99.837 C 132.478,99.668 131.925,99.113 131.755,99.113 C 131.694,99.113 131.635,99.066 131.635,98.994 C 131.635,98.836 123.106,90.319 122.949,90.319 C 122.89,90.319 120.854,92.295 118.432,94.718 C 116.024,97.137 114,99.113 113.939,99.113 C 113.795,99.113 112.844,98.175 112.844,98.029 C 112.844,97.97 112.806,97.908 112.76,97.908 C 112.603,97.908 111.999,97.342 111.999,97.199 C 111.999,97.127 111.963,97.065 111.917,97.065 C 111.76,97.065 111.156,96.499 111.156,96.356 C 111.156,96.284 111.12,96.222 111.071,96.222 C 110.915,96.222 110.313,95.656 110.313,95.513 C 110.313,95.439 110.277,95.379 110.228,95.379 C 110.097,95.379 109.47,94.826 109.47,94.729 C 109.47,94.621 109.157,94.296 109.05,94.296 C 108.952,94.296 108.627,93.97 108.627,93.873 C 108.627,93.778 108.302,93.453 108.204,93.453 C 108.109,93.453 107.784,93.127 107.784,93.03 C 107.784,92.981 107.712,92.874 107.615,92.777 C 107.52,92.681 107.41,92.61 107.361,92.61 C 107.315,92.61 107.205,92.536 107.11,92.441 C 107.013,92.343 106.941,92.236 106.941,92.187 C 106.941,92.09 106.616,91.765 106.518,91.765 C 106.423,91.765 106.098,91.439 106.098,91.344 C 106.098,91.224 105.519,90.681 105.375,90.681 C 105.314,90.681 105.255,90.622 105.255,90.56 C 105.255,90.393 104.699,89.838 104.53,89.838 C 104.471,89.838 104.412,89.779 104.412,89.717 C 104.412,89.548 103.856,88.995 103.689,88.995 C 103.628,88.995 103.567,88.936 103.567,88.874 C 103.567,88.705 103.013,88.152 102.844,88.152 C 102.785,88.152 102.724,88.103 102.724,88.031 C 102.724,87.875 99.629,84.78 99.472,84.78 C 99.401,84.78 99.352,84.718 99.352,84.659 C 99.352,84.49 98.798,83.937 98.629,83.937 C 98.568,83.937 98.509,83.875 98.509,83.814 C 98.509,83.742 98.376,83.55 98.207,83.394 C 98.05,83.225 97.858,83.092 97.786,83.092 C 97.725,83.092 97.666,83.032 97.666,82.971 C 97.666,82.804 97.11,82.249 96.943,82.249 C 96.882,82.249 96.823,82.128 96.823,81.972 C 96.823,81.646 99.544,78.877 99.87,78.877 C 99.977,78.877 103.146,81.959 106.928,85.743 C 110.7,89.525 113.867,92.61 113.977,92.61 C 114.072,92.61 116.108,90.657 118.494,88.272 C 120.877,85.887 122.89,83.937 122.949,83.937 C 123.021,83.937 126.057,86.924 129.708,90.573 C 133.623,94.488 136.357,97.137 136.393,97.042 C 136.429,96.958 136.465,96.187 136.478,95.32 L 136.513,93.753 L 138.681,93.753 L 140.851,93.753 L 140.887,99.39 L 140.91,105.016 L 135.309,105.016 L 129.708,105.016 L 129.731,102.764 Z" marker-start="none" marker-end="none"/>
     <path d="M 105.012,129.651 L 105.012,127.422 L 107.241,127.422 L 109.47,127.422 L 109.47,129.651 L 109.47,131.88 L 107.241,131.88 L 105.012,131.88 L 105.012,129.651 Z" marker-start="none" marker-end="none"/>
     <path d="M 113.928,129.651 L 113.928,127.422 L 131.912,127.447 L 149.885,127.481 L 149.885,129.651 L 149.885,131.818 L 131.912,131.854 L 113.928,131.88 L 113.928,129.651 Z" marker-start="none" marker-end="none"/>
     <path d="M 105.012,120.737 L 105.012,118.508 L 127.456,118.531 L 149.885,118.567 L 149.885,120.737 L 149.885,122.905 L 127.456,122.941 L 105.012,122.964 L 105.012,120.737 Z" marker-start="none" marker-end="none"/>
     <path d="M 37.604,84.621 C 37.581,84.539 37.568,83.55 37.581,82.43 L 37.617,80.383 L 39.88,80.345 L 42.134,80.322 L 42.134,82.551 L 42.134,84.78 L 39.905,84.78 C 38.194,84.78 37.653,84.744 37.604,84.621 Z" marker-start="none" marker-end="none"/>
     <path d="M 46.59,82.551 L 46.59,80.322 L 64.54,80.322 L 82.488,80.322 L 82.488,82.551 L 82.488,84.78 L 64.54,84.78 L 46.59,84.78 L 46.59,82.551 Z" marker-start="none" marker-end="none"/>
     <path d="M 37.604,75.587 C 37.581,75.505 37.568,74.516 37.581,73.396 L 37.617,71.349 L 60.057,71.311 L 82.488,71.288 L 82.488,73.517 L 82.488,75.743 L 60.082,75.743 C 41.916,75.743 37.653,75.72 37.604,75.587 Z" marker-start="none" marker-end="none"/>
    </g>
   </g>
   <g id="Layer_1"/>
  </g>
 </g>
</svg>
